<svg xmlns="http://www.w3.org/2000/svg" xmlns:xlink="http://www.w3.org/1999/xlink" version="1.1" class="marks" width="366" height="310" viewBox="0 0 366 310"><rect width="366" height="310" fill="white"/><g fill="none" stroke-miterlimit="10" transform="translate(41,10)"><g class="mark-group role-frame root" role="graphics-object" aria-roledescription="group mark container"><g transform="translate(0,0)"><path class="background" aria-hidden="true" d="M0.5,0.5h320v250h-320Z" stroke="#ddd"/><g><g class="mark-group role-axis" aria-hidden="true"><g transform="translate(0.5,0.5)"><path class="background" aria-hidden="true" d="M0,0h0v0h0Z" pointer-events="none"/><g><g class="mark-rule role-axis-grid" pointer-events="none"><line transform="translate(0,250)" x2="320" y2="0" stroke="#ddd" stroke-width="1" opacity="1"/><line transform="translate(0,222)" x2="320" y2="0" stroke="#ddd" stroke-width="1" opacity="1"/><line transform="translate(0,194)" x2="320" y2="0" stroke="#ddd" stroke-width="1" opacity="1"/><line transform="translate(0,167)" x2="320" y2="0" stroke="#ddd" stroke-width="1" opacity="1"/><line transform="translate(0,139)" x2="320" y2="0" stroke="#ddd" stroke-width="1" opacity="1"/><line transform="translate(0,111)" x2="320" y2="0" stroke="#ddd" stroke-width="1" opacity="1"/><line transform="translate(0,83)" x2="320" y2="0" stroke="#ddd" stroke-width="1" opacity="1"/><line transform="translate(0,56)" x2="320" y2="0" stroke="#ddd" stroke-width="1" opacity="1"/><line transform="translate(0,28)" x2="320" y2="0" stroke="#ddd" stroke-width="1" opacity="1"/><line transform="translate(0,0)" x2="320" y2="0" stroke="#ddd" stroke-width="1" opacity="1"/></g></g><path class="foreground" aria-hidden="true" d="" pointer-events="none" display="none"/></g></g><g class="mark-group role-axis" role="graphics-symbol" aria-roledescription="axis" aria-label="X-axis titled 'Year' for a discrete scale with 16 values: 2007, 2008, 2009, 2010, 2011, ending with 2022"><g transform="translate(0.5,250.5)"><path class="background" aria-hidden="true" d="M0,0h0v0h0Z" pointer-events="none"/><g><g class="mark-rule role-axis-tick" pointer-events="none"><line transform="translate(10,0)" x2="0" y2="5" stroke="#888" stroke-width="1" opacity="1"/><line transform="translate(30,0)" x2="0" y2="5" stroke="#888" stroke-width="1" opacity="1"/><line transform="translate(50,0)" x2="0" y2="5" stroke="#888" stroke-width="1" opacity="1"/><line transform="translate(70,0)" x2="0" y2="5" stroke="#888" stroke-width="1" opacity="1"/><line transform="translate(90,0)" x2="0" y2="5" stroke="#888" stroke-width="1" opacity="1"/><line transform="translate(110,0)" x2="0" y2="5" stroke="#888" stroke-width="1" opacity="1"/><line transform="translate(130,0)" x2="0" y2="5" stroke="#888" stroke-width="1" opacity="1"/><line transform="translate(150,0)" x2="0" y2="5" stroke="#888" stroke-width="1" opacity="1"/><line transform="translate(170,0)" x2="0" y2="5" stroke="#888" stroke-width="1" opacity="1"/><line transform="translate(190,0)" x2="0" y2="5" stroke="#888" stroke-width="1" opacity="1"/><line transform="translate(210,0)" x2="0" y2="5" stroke="#888" stroke-width="1" opacity="1"/><line transform="translate(230,0)" x2="0" y2="5" stroke="#888" stroke-width="1" opacity="1"/><line transform="translate(250,0)" x2="0" y2="5" stroke="#888" stroke-width="1" opacity="1"/><line transform="translate(270,0)" x2="0" y2="5" stroke="#888" stroke-width="1" opacity="1"/><line transform="translate(290,0)" x2="0" y2="5" stroke="#888" stroke-width="1" opacity="1"/><line transform="translate(310,0)" x2="0" y2="5" stroke="#888" stroke-width="1" opacity="1"/></g><g class="mark-text role-axis-label" pointer-events="none"><text text-anchor="end" transform="translate(9.5,7) rotate(270) translate(0,3)" font-family="sans-serif" font-size="10px" fill="#000" opacity="1">2007</text><text text-anchor="end" transform="translate(29.5,7) rotate(270) translate(0,3)" font-family="sans-serif" font-size="10px" fill="#000" opacity="1">2008</text><text text-anchor="end" transform="translate(49.5,7) rotate(270) translate(0,3)" font-family="sans-serif" font-size="10px" fill="#000" opacity="1">2009</text><text text-anchor="end" transform="translate(69.5,7) rotate(270) translate(0,3)" font-family="sans-serif" font-size="10px" fill="#000" opacity="1">2010</text><text text-anchor="end" transform="translate(89.5,7) rotate(270) translate(0,3)" font-family="sans-serif" font-size="10px" fill="#000" opacity="1">2011</text><text text-anchor="end" transform="translate(109.5,7) rotate(270) translate(0,3)" font-family="sans-serif" font-size="10px" fill="#000" opacity="1">2012</text><text text-anchor="end" transform="translate(129.5,7) rotate(270) translate(0,3)" font-family="sans-serif" font-size="10px" fill="#000" opacity="1">2013</text><text text-anchor="end" transform="translate(149.5,7) rotate(270) translate(0,3)" font-family="sans-serif" font-size="10px" fill="#000" opacity="1">2014</text><text text-anchor="end" transform="translate(169.5,7) rotate(270) translate(0,3)" font-family="sans-serif" font-size="10px" fill="#000" opacity="1">2015</text><text text-anchor="end" transform="translate(189.5,7) rotate(270) translate(0,3)" font-family="sans-serif" font-size="10px" fill="#000" opacity="1">2016</text><text text-anchor="end" transform="translate(209.5,7) rotate(270) translate(0,3)" font-family="sans-serif" font-size="10px" fill="#000" opacity="1">2017</text><text text-anchor="end" transform="translate(229.5,7) rotate(270) translate(0,3)" font-family="sans-serif" font-size="10px" fill="#000" opacity="1">2018</text><text text-anchor="end" transform="translate(249.5,7) rotate(270) translate(0,3)" font-family="sans-serif" font-size="10px" fill="#000" opacity="1">2019</text><text text-anchor="end" transform="translate(269.5,7) rotate(270) translate(0,3)" font-family="sans-serif" font-size="10px" fill="#000" opacity="1">2020</text><text text-anchor="end" transform="translate(289.5,7) rotate(270) translate(0,3)" font-family="sans-serif" font-size="10px" fill="#000" opacity="1">2021</text><text text-anchor="end" transform="translate(309.5,7) rotate(270) translate(0,3)" font-family="sans-serif" font-size="10px" fill="#000" opacity="1">2022</text></g><g class="mark-rule role-axis-domain" pointer-events="none"><line transform="translate(0,0)" x2="320" y2="0" stroke="#888" stroke-width="1" opacity="1"/></g><g class="mark-text role-axis-title" pointer-events="none"><text text-anchor="middle" transform="translate(160,42.24609375)" font-family="sans-serif" font-size="12px" font-weight="bold" fill="#000" opacity="1">Year</text></g></g><path class="foreground" aria-hidden="true" d="" pointer-events="none" display="none"/></g></g><g class="mark-group role-axis" role="graphics-symbol" aria-roledescription="axis" aria-label="Y-axis titled 'Number of Genomes' for a linear scale with values from 0 to 45"><g transform="translate(0.5,0.5)"><path class="background" aria-hidden="true" d="M0,0h0v0h0Z" pointer-events="none"/><g><g class="mark-rule role-axis-tick" pointer-events="none"><line transform="translate(0,250)" x2="-5" y2="0" stroke="#888" stroke-width="1" opacity="1"/><line transform="translate(0,222)" x2="-5" y2="0" stroke="#888" stroke-width="1" opacity="1"/><line transform="translate(0,194)" x2="-5" y2="0" stroke="#888" stroke-width="1" opacity="1"/><line transform="translate(0,167)" x2="-5" y2="0" stroke="#888" stroke-width="1" opacity="1"/><line transform="translate(0,139)" x2="-5" y2="0" stroke="#888" stroke-width="1" opacity="1"/><line transform="translate(0,111)" x2="-5" y2="0" stroke="#888" stroke-width="1" opacity="1"/><line transform="translate(0,83)" x2="-5" y2="0" stroke="#888" stroke-width="1" opacity="1"/><line transform="translate(0,56)" x2="-5" y2="0" stroke="#888" stroke-width="1" opacity="1"/><line transform="translate(0,28)" x2="-5" y2="0" stroke="#888" stroke-width="1" opacity="1"/><line transform="translate(0,0)" x2="-5" y2="0" stroke="#888" stroke-width="1" opacity="1"/></g><g class="mark-text role-axis-label" pointer-events="none"><text text-anchor="end" transform="translate(-7,253)" font-family="sans-serif" font-size="10px" fill="#000" opacity="1">0</text><text text-anchor="end" transform="translate(-7,225.2222222222222)" font-family="sans-serif" font-size="10px" fill="#000" opacity="1">5</text><text text-anchor="end" transform="translate(-7,197.44444444444446)" font-family="sans-serif" font-size="10px" fill="#000" opacity="1">10</text><text text-anchor="end" transform="translate(-7,169.66666666666669)" font-family="sans-serif" font-size="10px" fill="#000" opacity="1">15</text><text text-anchor="end" transform="translate(-7,141.88888888888889)" font-family="sans-serif" font-size="10px" fill="#000" opacity="1">20</text><text text-anchor="end" transform="translate(-7,114.1111111111111)" font-family="sans-serif" font-size="10px" fill="#000" opacity="1">25</text><text text-anchor="end" transform="translate(-7,86.33333333333334)" font-family="sans-serif" font-size="10px" fill="#000" opacity="1">30</text><text text-anchor="end" transform="translate(-7,58.55555555555555)" font-family="sans-serif" font-size="10px" fill="#000" opacity="1">35</text><text text-anchor="end" transform="translate(-7,30.77777777777779)" font-family="sans-serif" font-size="10px" fill="#000" opacity="1">40</text><text text-anchor="end" transform="translate(-7,3)" font-family="sans-serif" font-size="10px" fill="#000" opacity="1">45</text></g><g class="mark-rule role-axis-domain" pointer-events="none"><line transform="translate(0,250)" x2="0" y2="-250" stroke="#888" stroke-width="1" opacity="1"/></g><g class="mark-text role-axis-title" pointer-events="none"><text text-anchor="middle" transform="translate(-22.123046875,125) rotate(-90) translate(0,-3)" font-family="sans-serif" font-size="12px" font-weight="bold" fill="#000" opacity="1">Number of Genomes</text></g></g><path class="foreground" aria-hidden="true" d="" pointer-events="none" display="none"/></g></g><g class="mark-rect role-mark marks" role="graphics-object" aria-roledescription="rect mark container"><path aria-label="Year: 2007; Number of Genomes: 1; sequence_quality: HQ" role="graphics-symbol" aria-roledescription="bar" d="M1,244.44444444444443h18v5.555555555555571h-18Z" fill="blue"/><path aria-label="Year: 2007; Number of Genomes: 0; sequence_quality: MQ" role="graphics-symbol" aria-roledescription="bar" d="M1,250h18v0h-18Z" fill="orange"/><path aria-label="Year: 2007; Number of Genomes: 0; sequence_quality: LQ" role="graphics-symbol" aria-roledescription="bar" d="M1,250h18v0h-18Z" fill="red"/><path aria-label="Year: 2008; Number of Genomes: 1; sequence_quality: HQ" role="graphics-symbol" aria-roledescription="bar" d="M21,244.44444444444443h18v5.555555555555571h-18Z" fill="blue"/><path aria-label="Year: 2008; Number of Genomes: 0; sequence_quality: MQ" role="graphics-symbol" aria-roledescription="bar" d="M21,250h18v0h-18Z" fill="orange"/><path aria-label="Year: 2008; Number of Genomes: 0; sequence_quality: LQ" role="graphics-symbol" aria-roledescription="bar" d="M21,250h18v0h-18Z" fill="red"/><path aria-label="Year: 2009; Number of Genomes: 1; sequence_quality: HQ" role="graphics-symbol" aria-roledescription="bar" d="M41,238.8888888888889h18v5.5555555555555145h-18Z" fill="blue"/><path aria-label="Year: 2009; Number of Genomes: 0; sequence_quality: MQ" role="graphics-symbol" aria-roledescription="bar" d="M41,250h18v0h-18Z" fill="orange"/><path aria-label="Year: 2009; Number of Genomes: 1; sequence_quality: LQ" role="graphics-symbol" aria-roledescription="bar" d="M41,244.44444444444443h18v5.555555555555571h-18Z" fill="red"/><path aria-label="Year: 2010; Number of Genomes: 1; sequence_quality: HQ" role="graphics-symbol" aria-roledescription="bar" d="M61,238.8888888888889h18v5.5555555555555145h-18Z" fill="blue"/><path aria-label="Year: 2010; Number of Genomes: 0; sequence_quality: MQ" role="graphics-symbol" aria-roledescription="bar" d="M61,250h18v0h-18Z" fill="orange"/><path aria-label="Year: 2010; Number of Genomes: 1; sequence_quality: LQ" role="graphics-symbol" aria-roledescription="bar" d="M61,244.44444444444443h18v5.555555555555571h-18Z" fill="red"/><path aria-label="Year: 2011; Number of Genomes: 1; sequence_quality: HQ" role="graphics-symbol" aria-roledescription="bar" d="M81,233.33333333333334h18v5.555555555555571h-18Z" fill="blue"/><path aria-label="Year: 2011; Number of Genomes: 1; sequence_quality: MQ" role="graphics-symbol" aria-roledescription="bar" d="M81,244.44444444444443h18v5.555555555555571h-18Z" fill="orange"/><path aria-label="Year: 2011; Number of Genomes: 1; sequence_quality: LQ" role="graphics-symbol" aria-roledescription="bar" d="M81,238.8888888888889h18v5.5555555555555145h-18Z" fill="red"/><path aria-label="Year: 2012; Number of Genomes: 1; sequence_quality: HQ" role="graphics-symbol" aria-roledescription="bar" d="M101,233.33333333333334h18v5.555555555555571h-18Z" fill="blue"/><path aria-label="Year: 2012; Number of Genomes: 1; sequence_quality: MQ" role="graphics-symbol" aria-roledescription="bar" d="M101,244.44444444444443h18v5.555555555555571h-18Z" fill="orange"/><path aria-label="Year: 2012; Number of Genomes: 1; sequence_quality: LQ" role="graphics-symbol" aria-roledescription="bar" d="M101,238.8888888888889h18v5.5555555555555145h-18Z" fill="red"/><path aria-label="Year: 2013; Number of Genomes: 1; sequence_quality: HQ" role="graphics-symbol" aria-roledescription="bar" d="M121,222.2222222222222h18v5.555555555555571h-18Z" fill="blue"/><path aria-label="Year: 2013; Number of Genomes: 1; sequence_quality: MQ" role="graphics-symbol" aria-roledescription="bar" d="M121,244.44444444444443h18v5.555555555555571h-18Z" fill="orange"/><path aria-label="Year: 2013; Number of Genomes: 3; sequence_quality: LQ" role="graphics-symbol" aria-roledescription="bar" d="M121,227.77777777777777h18v16.666666666666657h-18Z" fill="red"/><path aria-label="Year: 2014; Number of Genomes: 1; sequence_quality: HQ" role="graphics-symbol" aria-roledescription="bar" d="M141,216.66666666666669h18v5.5555555555555145h-18Z" fill="blue"/><path aria-label="Year: 2014; Number of Genomes: 1; sequence_quality: MQ" role="graphics-symbol" aria-roledescription="bar" d="M141,244.44444444444443h18v5.555555555555571h-18Z" fill="orange"/><path aria-label="Year: 2014; Number of Genomes: 4; sequence_quality: LQ" role="graphics-symbol" aria-roledescription="bar" d="M141,222.2222222222222h18v22.22222222222223h-18Z" fill="red"/><path aria-label="Year: 2015; Number of Genomes: 1; sequence_quality: HQ" role="graphics-symbol" aria-roledescription="bar" d="M161,216.66666666666669h18v5.5555555555555145h-18Z" fill="blue"/><path aria-label="Year: 2015; Number of Genomes: 1; sequence_quality: MQ" role="graphics-symbol" aria-roledescription="bar" d="M161,244.44444444444443h18v5.555555555555571h-18Z" fill="orange"/><path aria-label="Year: 2015; Number of Genomes: 4; sequence_quality: LQ" role="graphics-symbol" aria-roledescription="bar" d="M161,222.2222222222222h18v22.22222222222223h-18Z" fill="red"/><path aria-label="Year: 2016; Number of Genomes: 1; sequence_quality: HQ" role="graphics-symbol" aria-roledescription="bar" d="M181,188.88888888888889h18v5.555555555555571h-18Z" fill="blue"/><path aria-label="Year: 2016; Number of Genomes: 5; sequence_quality: MQ" role="graphics-symbol" aria-roledescription="bar" d="M181,222.2222222222222h18v27.7777777777778h-18Z" fill="orange"/><path aria-label="Year: 2016; Number of Genomes: 5; sequence_quality: LQ" role="graphics-symbol" aria-roledescription="bar" d="M181,194.44444444444446h18v27.777777777777743h-18Z" fill="red"/><path aria-label="Year: 2017; Number of Genomes: 3; sequence_quality: HQ" role="graphics-symbol" aria-roledescription="bar" d="M201,177.77777777777777h18v16.666666666666686h-18Z" fill="blue"/><path aria-label="Year: 2017; Number of Genomes: 5; sequence_quality: MQ" role="graphics-symbol" aria-roledescription="bar" d="M201,222.2222222222222h18v27.7777777777778h-18Z" fill="orange"/><path aria-label="Year: 2017; Number of Genomes: 5; sequence_quality: LQ" role="graphics-symbol" aria-roledescription="bar" d="M201,194.44444444444446h18v27.777777777777743h-18Z" fill="red"/><path aria-label="Year: 2018; Number of Genomes: 4; sequence_quality: HQ" role="graphics-symbol" aria-roledescription="bar" d="M221,166.66666666666669h18v22.2222222222222h-18Z" fill="blue"/><path aria-label="Year: 2018; Number of Genomes: 6; sequence_quality: MQ" role="graphics-symbol" aria-roledescription="bar" d="M221,216.66666666666669h18v33.333333333333314h-18Z" fill="orange"/><path aria-label="Year: 2018; Number of Genomes: 5; sequence_quality: LQ" role="graphics-symbol" aria-roledescription="bar" d="M221,188.88888888888889h18v27.7777777777778h-18Z" fill="red"/><path aria-label="Year: 2019; Number of Genomes: 4; sequence_quality: HQ" role="graphics-symbol" aria-roledescription="bar" d="M241,133.33333333333334h18v22.22222222222223h-18Z" fill="blue"/><path aria-label="Year: 2019; Number of Genomes: 8; sequence_quality: MQ" role="graphics-symbol" aria-roledescription="bar" d="M241,205.55555555555554h18v44.44444444444446h-18Z" fill="orange"/><path aria-label="Year: 2019; Number of Genomes: 9; sequence_quality: LQ" role="graphics-symbol" aria-roledescription="bar" d="M241,155.55555555555557h18v49.99999999999997h-18Z" fill="red"/><path aria-label="Year: 2020; Number of Genomes: 10; sequence_quality: HQ" role="graphics-symbol" aria-roledescription="bar" d="M261,88.88888888888887h18v55.55555555555556h-18Z" fill="blue"/><path aria-label="Year: 2020; Number of Genomes: 8; sequence_quality: MQ" role="graphics-symbol" aria-roledescription="bar" d="M261,205.55555555555554h18v44.44444444444446h-18Z" fill="orange"/><path aria-label="Year: 2020; Number of Genomes: 11; sequence_quality: LQ" role="graphics-symbol" aria-roledescription="bar" d="M261,144.44444444444443h18v61.111111111111114h-18Z" fill="red"/><path aria-label="Year: 2021; Number of Genomes: 12; sequence_quality: HQ" role="graphics-symbol" aria-roledescription="bar" d="M281,44.44444444444445h18v66.66666666666666h-18Z" fill="blue"/><path aria-label="Year: 2021; Number of Genomes: 10; sequence_quality: MQ" role="graphics-symbol" aria-roledescription="bar" d="M281,194.44444444444446h18v55.55555555555554h-18Z" fill="orange"/><path aria-label="Year: 2021; Number of Genomes: 15; sequence_quality: LQ" role="graphics-symbol" aria-roledescription="bar" d="M281,111.1111111111111h18v83.33333333333336h-18Z" fill="red"/><path aria-label="Year: 2022; Number of Genomes: 16; sequence_quality: HQ" role="graphics-symbol" aria-roledescription="bar" d="M301,16.666666666666664h18v88.88888888888891h-18Z" fill="blue"/><path aria-label="Year: 2022; Number of Genomes: 10; sequence_quality: MQ" role="graphics-symbol" aria-roledescription="bar" d="M301,194.44444444444446h18v55.55555555555554h-18Z" fill="orange"/><path aria-label="Year: 2022; Number of Genomes: 16; sequence_quality: LQ" role="graphics-symbol" aria-roledescription="bar" d="M301,105.55555555555557h18v88.88888888888889h-18Z" fill="red"/></g></g><path class="foreground" aria-hidden="true" d="" display="none"/></g></g></g></svg>