<svg xmlns="http://www.w3.org/2000/svg" xmlns:xlink="http://www.w3.org/1999/xlink" version="1.1" class="marks" width="291" height="292" viewBox="0 0 291 292"><rect width="291" height="292" fill="white"/><g fill="none" stroke-miterlimit="10" transform="translate(35,5)"><g class="mark-group role-frame root" role="graphics-object" aria-roledescription="group mark container"><g transform="translate(0,0)"><path class="background" aria-hidden="true" d="M0.5,0.5h250v250h-250Z" stroke="#ddd"/><g><g class="mark-group role-axis" aria-hidden="true"><g transform="translate(0.5,250.5)"><path class="background" aria-hidden="true" d="M0,0h0v0h0Z" pointer-events="none"/><g><g class="mark-rule role-axis-grid" pointer-events="none"><line transform="translate(0,-250)" x2="0" y2="250" stroke="#ddd" stroke-width="1" opacity="1"/><line transform="translate(28,-250)" x2="0" y2="250" stroke="#ddd" stroke-width="1" opacity="1"/><line transform="translate(56,-250)" x2="0" y2="250" stroke="#ddd" stroke-width="1" opacity="1"/><line transform="translate(83,-250)" x2="0" y2="250" stroke="#ddd" stroke-width="1" opacity="1"/><line transform="translate(111,-250)" x2="0" y2="250" stroke="#ddd" stroke-width="1" opacity="1"/><line transform="translate(139,-250)" x2="0" y2="250" stroke="#ddd" stroke-width="1" opacity="1"/><line transform="translate(167,-250)" x2="0" y2="250" stroke="#ddd" stroke-width="1" opacity="1"/><line transform="translate(194,-250)" x2="0" y2="250" stroke="#ddd" stroke-width="1" opacity="1"/><line transform="translate(222,-250)" x2="0" y2="250" stroke="#ddd" stroke-width="1" opacity="1"/><line transform="translate(250,-250)" x2="0" y2="250" stroke="#ddd" stroke-width="1" opacity="1"/></g></g><path class="foreground" aria-hidden="true" d="" pointer-events="none" display="none"/></g></g><g class="mark-group role-axis" aria-hidden="true"><g transform="translate(0.5,0.5)"><path class="background" aria-hidden="true" d="M0,0h0v0h0Z" pointer-events="none"/><g><g class="mark-rule role-axis-grid" pointer-events="none"><line transform="translate(0,250)" x2="250" y2="0" stroke="#ddd" stroke-width="1" opacity="1"/><line transform="translate(0,214)" x2="250" y2="0" stroke="#ddd" stroke-width="1" opacity="1"/><line transform="translate(0,178)" x2="250" y2="0" stroke="#ddd" stroke-width="1" opacity="1"/><line transform="translate(0,142)" x2="250" y2="0" stroke="#ddd" stroke-width="1" opacity="1"/><line transform="translate(0,106)" x2="250" y2="0" stroke="#ddd" stroke-width="1" opacity="1"/><line transform="translate(0,70)" x2="250" y2="0" stroke="#ddd" stroke-width="1" opacity="1"/><line transform="translate(0,34)" x2="250" y2="0" stroke="#ddd" stroke-width="1" opacity="1"/></g></g><path class="foreground" aria-hidden="true" d="" pointer-events="none" display="none"/></g></g><g class="mark-group role-axis" role="graphics-symbol" aria-roledescription="axis" aria-label="X-axis titled 'Completeness (%)' for a linear scale with values from 92 to 101"><g transform="translate(0.5,250.5)"><path class="background" aria-hidden="true" d="M0,0h0v0h0Z" pointer-events="none"/><g><g class="mark-rule role-axis-tick" pointer-events="none"><line transform="translate(0,0)" x2="0" y2="5" stroke="#888" stroke-width="1" opacity="1"/><line transform="translate(28,0)" x2="0" y2="5" stroke="#888" stroke-width="1" opacity="1"/><line transform="translate(56,0)" x2="0" y2="5" stroke="#888" stroke-width="1" opacity="1"/><line transform="translate(83,0)" x2="0" y2="5" stroke="#888" stroke-width="1" opacity="1"/><line transform="translate(111,0)" x2="0" y2="5" stroke="#888" stroke-width="1" opacity="1"/><line transform="translate(139,0)" x2="0" y2="5" stroke="#888" stroke-width="1" opacity="1"/><line transform="translate(167,0)" x2="0" y2="5" stroke="#888" stroke-width="1" opacity="1"/><line transform="translate(194,0)" x2="0" y2="5" stroke="#888" stroke-width="1" opacity="1"/><line transform="translate(222,0)" x2="0" y2="5" stroke="#888" stroke-width="1" opacity="1"/><line transform="translate(250,0)" x2="0" y2="5" stroke="#888" stroke-width="1" opacity="1"/></g><g class="mark-text role-axis-label" pointer-events="none"><text text-anchor="start" transform="translate(0,15)" font-family="sans-serif" font-size="10px" fill="#000" opacity="1">92</text><text text-anchor="middle" transform="translate(27.777777777777775,15)" font-family="sans-serif" font-size="10px" fill="#000" opacity="1">93</text><text text-anchor="middle" transform="translate(55.55555555555555,15)" font-family="sans-serif" font-size="10px" fill="#000" opacity="1">94</text><text text-anchor="middle" transform="translate(83.33333333333333,15)" font-family="sans-serif" font-size="10px" fill="#000" opacity="1">95</text><text text-anchor="middle" transform="translate(111.1111111111111,15)" font-family="sans-serif" font-size="10px" fill="#000" opacity="1">96</text><text text-anchor="middle" transform="translate(138.88888888888889,15)" font-family="sans-serif" font-size="10px" fill="#000" opacity="1">97</text><text text-anchor="middle" transform="translate(166.66666666666666,15)" font-family="sans-serif" font-size="10px" fill="#000" opacity="1">98</text><text text-anchor="middle" transform="translate(194.44444444444446,15)" font-family="sans-serif" font-size="10px" fill="#000" opacity="1">99</text><text text-anchor="middle" transform="translate(222.2222222222222,15)" font-family="sans-serif" font-size="10px" fill="#000" opacity="1">100</text><text text-anchor="end" transform="translate(250,15)" font-family="sans-serif" font-size="10px" fill="#000" opacity="1">101</text></g><g class="mark-rule role-axis-domain" pointer-events="none"><line transform="translate(0,0)" x2="250" y2="0" stroke="#888" stroke-width="1" opacity="1"/></g><g class="mark-text role-axis-title" pointer-events="none"><text text-anchor="middle" transform="translate(125,30)" font-family="sans-serif" font-size="12px" font-weight="bold" fill="#000" opacity="1">Completeness (%)</text></g></g><path class="foreground" aria-hidden="true" d="" pointer-events="none" display="none"/></g></g><g class="mark-group role-axis" role="graphics-symbol" aria-roledescription="axis" aria-label="Y-axis titled 'Contamination (%)' for a linear scale with values from 0 to 7"><g transform="translate(0.5,0.5)"><path class="background" aria-hidden="true" d="M0,0h0v0h0Z" pointer-events="none"/><g><g class="mark-rule role-axis-tick" pointer-events="none"><line transform="translate(0,250)" x2="-5" y2="0" stroke="#888" stroke-width="1" opacity="1"/><line transform="translate(0,214)" x2="-5" y2="0" stroke="#888" stroke-width="1" opacity="1"/><line transform="translate(0,178)" x2="-5" y2="0" stroke="#888" stroke-width="1" opacity="1"/><line transform="translate(0,142)" x2="-5" y2="0" stroke="#888" stroke-width="1" opacity="1"/><line transform="translate(0,106)" x2="-5" y2="0" stroke="#888" stroke-width="1" opacity="1"/><line transform="translate(0,70)" x2="-5" y2="0" stroke="#888" stroke-width="1" opacity="1"/><line transform="translate(0,34)" x2="-5" y2="0" stroke="#888" stroke-width="1" opacity="1"/></g><g class="mark-text role-axis-label" pointer-events="none"><text text-anchor="end" transform="translate(-7,253)" font-family="sans-serif" font-size="10px" fill="#000" opacity="1">0</text><text text-anchor="end" transform="translate(-7,216.97694524495677)" font-family="sans-serif" font-size="10px" fill="#000" opacity="1">1</text><text text-anchor="end" transform="translate(-7,180.95389048991356)" font-family="sans-serif" font-size="10px" fill="#000" opacity="1">2</text><text text-anchor="end" transform="translate(-7,144.9308357348703)" font-family="sans-serif" font-size="10px" fill="#000" opacity="1">3</text><text text-anchor="end" transform="translate(-7,108.90778097982708)" font-family="sans-serif" font-size="10px" fill="#000" opacity="1">4</text><text text-anchor="end" transform="translate(-7,72.88472622478386)" font-family="sans-serif" font-size="10px" fill="#000" opacity="1">5</text><text text-anchor="end" transform="translate(-7,36.86167146974064)" font-family="sans-serif" font-size="10px" fill="#000" opacity="1">6</text></g><g class="mark-rule role-axis-domain" pointer-events="none"><line transform="translate(0,250)" x2="0" y2="-250" stroke="#888" stroke-width="1" opacity="1"/></g><g class="mark-text role-axis-title" pointer-events="none"><text text-anchor="middle" transform="translate(-16.5615234375,125) rotate(-90) translate(0,-3)" font-family="sans-serif" font-size="12px" font-weight="bold" fill="#000" opacity="1">Contamination (%)</text></g></g><path class="foreground" aria-hidden="true" d="" pointer-events="none" display="none"/></g></g><g class="mark-symbol role-mark marks" clip-path="url(#clip4)" role="graphics-object" aria-roledescription="symbol mark container"><path aria-label="Completeness (%): 100; Contamination (%): 1.94575781455; sequence_quality: HQ; genome_id: GCF_000062885.1; Date: 2007-03-21; Year: 2007; assembly_level: Complete Genome; MIMAG_quality: HQ; Completeness: 100; Contamination: 1.94575781455; N50: 8212805; number_of_contigs: 1; sequence_length: 8212805" role="graphics-symbol" aria-roledescription="point" transform="translate(222.2222222222222,179.907859706335)" d="M5,0A5,5,0,1,1,-5,0A5,5,0,1,1,5,0" fill="blue" stroke="black" stroke-width="0.5" opacity="0.8"/><path aria-label="Completeness (%): 99.8226950355; Contamination (%): 1.76845285001; sequence_quality: LQ; genome_id: GCF_000171635.1; Date: 2009-09-04; Year: 2009; assembly_level: Contig; MIMAG_quality: HQ; Completeness: 99.8226950355; Contamination: 1.76845285001; N50: 80965; number_of_contigs: 241; sequence_length: 8079083" role="graphics-symbol" aria-roledescription="point" transform="translate(217.297084318361,186.29492615226462)" d="M5,0A5,5,0,1,1,-5,0A5,5,0,1,1,5,0" fill="red" stroke="black" stroke-width="0.5" opacity="0.8"/><path aria-label="Completeness (%): 98.6406619385; Contamination (%): 2.99776727082; sequence_quality: MQ; genome_id: GCF_000194155.1; Date: 2011-03-29; Year: 2011; assembly_level: Scaffold; MIMAG_quality: HQ; Completeness: 98.6406619385; Contamination: 2.99776727082; N50: 2392754; number_of_contigs: 22; sequence_length: 8581920" role="graphics-symbol" aria-roledescription="point" transform="translate(184.4628316259522,142.0112654604857)" d="M5,0A5,5,0,1,1,-5,0A5,5,0,1,1,5,0" fill="orange" stroke="black" stroke-width="0.5" opacity="0.8"/><path aria-label="Completeness (%): 98.5224586288; Contamination (%): 1.5780141844; sequence_quality: LQ; genome_id: GCF_000448385.1; Date: 2013-08-20; Year: 2013; assembly_level: Contig; MIMAG_quality: HQ; Completeness: 98.5224586288; Contamination: 1.5780141844; N50: 37346; number_of_contigs: 384; sequence_length: 7969918" role="graphics-symbol" aria-roledescription="point" transform="translate(181.17940635671164,193.1551086312261)" d="M5,0A5,5,0,1,1,-5,0A5,5,0,1,1,5,0" fill="red" stroke="black" stroke-width="0.5" opacity="0.8"/><path aria-label="Completeness (%): 99.3794326241; Contamination (%): 1.24113475177; sequence_quality: LQ; genome_id: GCF_000497205.1; Date: 2013-11-18; Year: 2013; assembly_level: Contig; MIMAG_quality: HQ; Completeness: 99.3794326241; Contamination: 1.24113475177; N50: 52597; number_of_contigs: 182; sequence_length: 3977051" role="graphics-symbol" aria-roledescription="point" transform="translate(204.9842395587077,205.29053487849248)" d="M5,0A5,5,0,1,1,-5,0A5,5,0,1,1,5,0" fill="red" stroke="black" stroke-width="0.5" opacity="0.8"/><path aria-label="Completeness (%): 99.4680851064; Contamination (%): 0.886524822695; sequence_quality: LQ; genome_id: GCF_000710755.1; Date: 2014-06-23; Year: 2014; assembly_level: Contig; MIMAG_quality: HQ; Completeness: 99.4680851064; Contamination: 0.886524822695; N50: 266613; number_of_contigs: 50; sequence_length: 3961468" role="graphics-symbol" aria-roledescription="point" transform="translate(207.4468085106377,218.06466777035175)" d="M5,0A5,5,0,1,1,-5,0A5,5,0,1,1,5,0" fill="red" stroke="black" stroke-width="0.5" opacity="0.8"/><path aria-label="Completeness (%): 99.6453900709; Contamination (%): 5.00131337011; sequence_quality: LQ; genome_id: GCF_900106995.1; Date: 2016-10-22; Year: 2016; assembly_level: Scaffold; MIMAG_quality: MQ; Completeness: 99.6453900709; Contamination: 5.00131337011; N50: 134752; number_of_contigs: 135; sequence_length: 10151409" role="graphics-symbol" aria-roledescription="point" transform="translate(212.37194641450014,69.83741462148069)" d="M5,0A5,5,0,1,1,-5,0A5,5,0,1,1,5,0" fill="red" stroke="black" stroke-width="0.5" opacity="0.8"/><path aria-label="Completeness (%): 99.6453900709; Contamination (%): 2.72458628842; sequence_quality: MQ; genome_id: GCF_900108315.1; Date: 2016-10-24; Year: 2016; assembly_level: Scaffold; MIMAG_quality: HQ; Completeness: 99.6453900709; Contamination: 2.72458628842; N50: 729242; number_of_contigs: 27; sequence_length: 7744048" role="graphics-symbol" aria-roledescription="point" transform="translate(212.37194641450014,151.8520789475477)" d="M5,0A5,5,0,1,1,-5,0A5,5,0,1,1,5,0" fill="orange" stroke="black" stroke-width="0.5" opacity="0.8"/><path aria-label="Completeness (%): 99.5271867612; Contamination (%): 2.72458628842; sequence_quality: MQ; genome_id: GCF_900112555.1; Date: 2016-11-05; Year: 2016; assembly_level: Scaffold; MIMAG_quality: HQ; Completeness: 99.5271867612; Contamination: 2.72458628842; N50: 406024; number_of_contigs: 28; sequence_length: 7777251" role="graphics-symbol" aria-roledescription="point" transform="translate(209.08852114525877,151.8520789475477)" d="M5,0A5,5,0,1,1,-5,0A5,5,0,1,1,5,0" fill="orange" stroke="black" stroke-width="0.5" opacity="0.8"/><path aria-label="Completeness (%): 100; Contamination (%): 3.18557919622; sequence_quality: MQ; genome_id: GCF_900114905.1; Date: 2016-11-05; Year: 2016; assembly_level: Scaffold; MIMAG_quality: HQ; Completeness: 100; Contamination: 3.18557919622; N50: 345124; number_of_contigs: 43; sequence_length: 8219321" role="graphics-symbol" aria-roledescription="point" transform="translate(222.2222222222222,135.2457061881306)" d="M5,0A5,5,0,1,1,-5,0A5,5,0,1,1,5,0" fill="orange" stroke="black" stroke-width="0.5" opacity="0.8"/><path aria-label="Completeness (%): 99.4680851064; Contamination (%): 1.75531914894; sequence_quality: MQ; genome_id: GCF_900116135.1; Date: 2016-11-05; Year: 2016; assembly_level: Scaffold; MIMAG_quality: HQ; Completeness: 99.4680851064; Contamination: 1.75531914894; N50: 505605; number_of_contigs: 22; sequence_length: 6291299" role="graphics-symbol" aria-roledescription="point" transform="translate(207.4468085106377,186.76804218529648)" d="M5,0A5,5,0,1,1,-5,0A5,5,0,1,1,5,0" fill="orange" stroke="black" stroke-width="0.5" opacity="0.8"/><path aria-label="Completeness (%): 100; Contamination (%): 1.94575781455; sequence_quality: HQ; genome_id: GCF_002564065.1; Date: 2017-10-17; Year: 2017; assembly_level: Contig; MIMAG_quality: HQ; Completeness: 100; Contamination: 1.94575781455; N50: 8230103; number_of_contigs: 1; sequence_length: 8230103" role="graphics-symbol" aria-roledescription="point" transform="translate(222.2222222222222,179.907859706335)" d="M5,0A5,5,0,1,1,-5,0A5,5,0,1,1,5,0" fill="blue" stroke="black" stroke-width="0.5" opacity="0.8"/><path aria-label="Completeness (%): 99.5271867612; Contamination (%): 3.24599422117; sequence_quality: HQ; genome_id: GCF_002846475.1; Date: 2017-12-21; Year: 2017; assembly_level: Contig; MIMAG_quality: HQ; Completeness: 99.5271867612; Contamination: 3.24599422117; N50: 9020646; number_of_contigs: 1; sequence_length: 9020646" role="graphics-symbol" aria-roledescription="point" transform="translate(209.08852114525877,133.0693724361842)" d="M5,0A5,5,0,1,1,-5,0A5,5,0,1,1,5,0" fill="blue" stroke="black" stroke-width="0.5" opacity="0.8"/><path aria-label="Completeness (%): 100; Contamination (%): 3.18557919622; sequence_quality: HQ; genome_id: GCF_003635025.1; Date: 2018-10-11; Year: 2018; assembly_level: Contig; MIMAG_quality: HQ; Completeness: 100; Contamination: 3.18557919622; N50: 8125734; number_of_contigs: 2; sequence_length: 8266186" role="graphics-symbol" aria-roledescription="point" transform="translate(222.2222222222222,135.2457061881306)" d="M5,0A5,5,0,1,1,-5,0A5,5,0,1,1,5,0" fill="blue" stroke="black" stroke-width="0.5" opacity="0.8"/><path aria-label="Completeness (%): 100; Contamination (%): 1.48936170213; sequence_quality: MQ; genome_id: GCF_003931915.1; Date: 2018-12-09; Year: 2018; assembly_level: Scaffold; MIMAG_quality: HQ; Completeness: 100; Contamination: 1.48936170213; N50: 345543; number_of_contigs: 35; sequence_length: 5824618" role="graphics-symbol" aria-roledescription="point" transform="translate(222.2222222222222,196.34864185419093)" d="M5,0A5,5,0,1,1,-5,0A5,5,0,1,1,5,0" fill="orange" stroke="black" stroke-width="0.5" opacity="0.8"/><path aria-label="Completeness (%): 99.8226950355; Contamination (%): 2.19858156028; sequence_quality: LQ; genome_id: GCF_004348435.1; Date: 2019-03-13; Year: 2019; assembly_level: Contig; MIMAG_quality: HQ; Completeness: 99.8226950355; Contamination: 2.19858156028; N50: 81009; number_of_contigs: 167; sequence_length: 6653094" role="graphics-symbol" aria-roledescription="point" transform="translate(217.297084318361,170.80037607047234)" d="M5,0A5,5,0,1,1,-5,0A5,5,0,1,1,5,0" fill="red" stroke="black" stroke-width="0.5" opacity="0.8"/><path aria-label="Completeness (%): 99.8226950355; Contamination (%): 1.75531914894; sequence_quality: LQ; genome_id: GCF_004348445.1; Date: 2019-03-13; Year: 2019; assembly_level: Contig; MIMAG_quality: HQ; Completeness: 99.8226950355; Contamination: 1.75531914894; N50: 157189; number_of_contigs: 83; sequence_length: 6008184" role="graphics-symbol" aria-roledescription="point" transform="translate(217.297084318361,186.76804218529648)" d="M5,0A5,5,0,1,1,-5,0A5,5,0,1,1,5,0" fill="red" stroke="black" stroke-width="0.5" opacity="0.8"/><path aria-label="Completeness (%): 99.8226950355; Contamination (%): 3.16916206987; sequence_quality: LQ; genome_id: GCF_004349225.1; Date: 2019-03-13; Year: 2019; assembly_level: Contig; MIMAG_quality: HQ; Completeness: 99.8226950355; Contamination: 3.16916206987; N50: 92552; number_of_contigs: 137; sequence_length: 6670713" role="graphics-symbol" aria-roledescription="point" transform="translate(217.297084318361,135.8371012294204)" d="M5,0A5,5,0,1,1,-5,0A5,5,0,1,1,5,0" fill="red" stroke="black" stroke-width="0.5" opacity="0.8"/><path aria-label="Completeness (%): 99.6453900709; Contamination (%): 3.87838192803; sequence_quality: LQ; genome_id: GCF_004348985.1; Date: 2019-03-13; Year: 2019; assembly_level: Contig; MIMAG_quality: HQ; Completeness: 99.6453900709; Contamination: 3.87838192803; N50: 104630; number_of_contigs: 277; sequence_length: 10298286" role="graphics-symbol" aria-roledescription="point" transform="translate(212.37194641450014,110.2888354457018)" d="M5,0A5,5,0,1,1,-5,0A5,5,0,1,1,5,0" fill="red" stroke="black" stroke-width="0.5" opacity="0.8"/><path aria-label="Completeness (%): 97.3404255319; Contamination (%): 3.8829787234; sequence_quality: MQ; genome_id: GCF_007829955.1; Date: 2019-08-02; Year: 2019; assembly_level: Contig; MIMAG_quality: HQ; Completeness: 97.3404255319; Contamination: 3.8829787234; N50: 1390797; number_of_contigs: 8; sequence_length: 6410624" role="graphics-symbol" aria-roledescription="point" transform="translate(148.34515366430207,110.12324483414068)" d="M5,0A5,5,0,1,1,-5,0A5,5,0,1,1,5,0" fill="orange" stroke="black" stroke-width="0.5" opacity="0.8"/><path aria-label="Completeness (%): 99.438534279; Contamination (%): 2.62411347518; sequence_quality: MQ; genome_id: GCF_008630535.1; Date: 2019-09-20; Year: 2019; assembly_level: Contig; MIMAG_quality: HQ; Completeness: 99.438534279; Contamination: 2.62411347518; N50: 504440; number_of_contigs: 46; sequence_length: 7549392" role="graphics-symbol" aria-roledescription="point" transform="translate(206.62595219332835,155.47141660024116)" d="M5,0A5,5,0,1,1,-5,0A5,5,0,1,1,5,0" fill="orange" stroke="black" stroke-width="0.5" opacity="0.8"/><path aria-label="Completeness (%): 99.8817966903; Contamination (%): 3.05095876018; sequence_quality: HQ; genome_id: GCF_012277335.1; Date: 2020-04-14; Year: 2020; assembly_level: Complete Genome; MIMAG_quality: HQ; Completeness: 99.8817966903; Contamination: 3.05095876018; N50: 8045912; number_of_contigs: 1; sequence_length: 8045912" role="graphics-symbol" aria-roledescription="point" transform="translate(218.93879695298165,140.09514552670683)" d="M5,0A5,5,0,1,1,-5,0A5,5,0,1,1,5,0" fill="blue" stroke="black" stroke-width="0.5" opacity="0.8"/><path aria-label="Completeness (%): 99.6453900709; Contamination (%): 1.84397163121; sequence_quality: HQ; genome_id: GCF_013410345.1; Date: 2020-07-13; Year: 2020; assembly_level: Contig; MIMAG_quality: HQ; Completeness: 99.6453900709; Contamination: 1.84397163121; N50: 5783988; number_of_contigs: 1; sequence_length: 5783988" role="graphics-symbol" aria-roledescription="point" transform="translate(212.37194641450014,183.57450896233163)" d="M5,0A5,5,0,1,1,-5,0A5,5,0,1,1,5,0" fill="blue" stroke="black" stroke-width="0.5" opacity="0.8"/><path aria-label="Completeness (%): 99.4680851064; Contamination (%): 1.536643026; sequence_quality: HQ; genome_id: GCF_014203325.1; Date: 2020-08-14; Year: 2020; assembly_level: Contig; MIMAG_quality: HQ; Completeness: 99.4680851064; Contamination: 1.536643026; N50: 6825909; number_of_contigs: 1; sequence_length: 6825909" role="graphics-symbol" aria-roledescription="point" transform="translate(207.4468085106377,194.6454241352764)" d="M5,0A5,5,0,1,1,-5,0A5,5,0,1,1,5,0" fill="blue" stroke="black" stroke-width="0.5" opacity="0.8"/><path aria-label="Completeness (%): 99.2907801418; Contamination (%): 4.0780141844; sequence_quality: HQ; genome_id: GCF_014203395.1; Date: 2020-08-14; Year: 2020; assembly_level: Contig; MIMAG_quality: HQ; Completeness: 99.2907801418; Contamination: 4.0780141844; N50: 5889697; number_of_contigs: 6; sequence_length: 8541735" role="graphics-symbol" aria-roledescription="point" transform="translate(202.52167060677647,103.09747174361806)" d="M5,0A5,5,0,1,1,-5,0A5,5,0,1,1,5,0" fill="blue" stroke="black" stroke-width="0.5" opacity="0.8"/><path aria-label="Completeness (%): 99.5271867612; Contamination (%): 3.24599422117; sequence_quality: HQ; genome_id: GCF_014490055.1; Date: 2020-09-07; Year: 2020; assembly_level: Complete Genome; MIMAG_quality: HQ; Completeness: 99.5271867612; Contamination: 3.24599422117; N50: 8876435; number_of_contigs: 1; sequence_length: 8876435" role="graphics-symbol" aria-roledescription="point" transform="translate(209.08852114525877,133.0693724361842)" d="M5,0A5,5,0,1,1,-5,0A5,5,0,1,1,5,0" fill="blue" stroke="black" stroke-width="0.5" opacity="0.8"/><path aria-label="Completeness (%): 100; Contamination (%): 1.78486997636; sequence_quality: LQ; genome_id: GCF_014646075.1; Date: 2020-09-12; Year: 2020; assembly_level: Scaffold; MIMAG_quality: HQ; Completeness: 100; Contamination: 1.78486997636; N50: 243658; number_of_contigs: 59; sequence_length: 5359807" role="graphics-symbol" aria-roledescription="point" transform="translate(222.2222222222222,185.70353111097486)" d="M5,0A5,5,0,1,1,-5,0A5,5,0,1,1,5,0" fill="red" stroke="black" stroke-width="0.5" opacity="0.8"/><path aria-label="Completeness (%): 99.8817966903; Contamination (%): 5.94309354948; sequence_quality: HQ; genome_id: GCF_014697215.1; Date: 2020-09-22; Year: 2020; assembly_level: Complete Genome; MIMAG_quality: MQ; Completeness: 99.8817966903; Contamination: 5.94309354948; N50: 9436548; number_of_contigs: 3; sequence_length: 9608180" role="graphics-symbol" aria-roledescription="point" transform="translate(218.93879695298165,35.91161565286283)" d="M5,0A5,5,0,1,1,-5,0A5,5,0,1,1,5,0" fill="blue" stroke="black" stroke-width="0.5" opacity="0.8"/><path aria-label="Completeness (%): 92.3758865248; Contamination (%): 1.24113475177; sequence_quality: LQ; genome_id: GCF_015209505.1; Date: 2020-11-02; Year: 2020; assembly_level: Contig; MIMAG_quality: HQ; Completeness: 92.3758865248; Contamination: 1.24113475177; N50: 179605; number_of_contigs: 52; sequence_length: 4162025" role="graphics-symbol" aria-roledescription="point" transform="translate(10.44129235618543,205.29053487849248)" d="M5,0A5,5,0,1,1,-5,0A5,5,0,1,1,5,0" fill="red" stroke="black" stroke-width="0.5" opacity="0.8"/><path aria-label="Completeness (%): 99.4680851064; Contamination (%): 1.47754137116; sequence_quality: MQ; genome_id: GCF_016526145.1; Date: 2021-01-05; Year: 2021; assembly_level: Scaffold; MIMAG_quality: HQ; Completeness: 99.4680851064; Contamination: 1.47754137116; N50: 454807; number_of_contigs: 34; sequence_length: 6397171" role="graphics-symbol" aria-roledescription="point" transform="translate(207.4468085106377,196.7744462839196)" d="M5,0A5,5,0,1,1,-5,0A5,5,0,1,1,5,0" fill="orange" stroke="black" stroke-width="0.5" opacity="0.8"/><path aria-label="Completeness (%): 100; Contamination (%): 2.65497767271; sequence_quality: HQ; genome_id: GCF_016859185.1; Date: 2021-02-10; Year: 2021; assembly_level: Complete Genome; MIMAG_quality: HQ; Completeness: 100; Contamination: 2.65497767271; N50: 8305652; number_of_contigs: 1; sequence_length: 8305652" role="graphics-symbol" aria-roledescription="point" transform="translate(222.2222222222222,154.3595939226164)" d="M5,0A5,5,0,1,1,-5,0A5,5,0,1,1,5,0" fill="blue" stroke="black" stroke-width="0.5" opacity="0.8"/><path aria-label="Completeness (%): 99.8226950355; Contamination (%): 2.86183346467; sequence_quality: MQ; genome_id: GCF_018070075.1; Date: 2021-04-18; Year: 2021; assembly_level: Contig; MIMAG_quality: HQ; Completeness: 99.8226950355; Contamination: 2.86183346467; N50: 363995; number_of_contigs: 34; sequence_length: 7167017" role="graphics-symbol" aria-roledescription="point" transform="translate(217.297084318361,146.90801640236515)" d="M5,0A5,5,0,1,1,-5,0A5,5,0,1,1,5,0" fill="orange" stroke="black" stroke-width="0.5" opacity="0.8"/><path aria-label="Completeness (%): 99.6453900709; Contamination (%): 2.28263724718; sequence_quality: HQ; genome_id: GCF_018141105.1; Date: 2021-04-27; Year: 2021; assembly_level: Complete Genome; MIMAG_quality: HQ; Completeness: 99.6453900709; Contamination: 2.28263724718; N50: 8243897; number_of_contigs: 1; sequence_length: 8243897" role="graphics-symbol" aria-roledescription="point" transform="translate(212.37194641450014,167.77243345906868)" d="M5,0A5,5,0,1,1,-5,0A5,5,0,1,1,5,0" fill="blue" stroke="black" stroke-width="0.5" opacity="0.8"/><path aria-label="Completeness (%): 99.8226950355; Contamination (%): 1.44799054374; sequence_quality: LQ; genome_id: GCF_020177435.1; Date: 2021-09-29; Year: 2021; assembly_level: Contig; MIMAG_quality: HQ; Completeness: 99.8226950355; Contamination: 1.44799054374; N50: 40461; number_of_contigs: 291; sequence_length: 6480769" role="graphics-symbol" aria-roledescription="point" transform="translate(217.297084318361,197.8389573582412)" d="M5,0A5,5,0,1,1,-5,0A5,5,0,1,1,5,0" fill="red" stroke="black" stroke-width="0.5" opacity="0.8"/><path aria-label="Completeness (%): 99.4680851064; Contamination (%): 1.44799054374; sequence_quality: LQ; genome_id: GCF_020177455.1; Date: 2021-09-29; Year: 2021; assembly_level: Contig; MIMAG_quality: HQ; Completeness: 99.4680851064; Contamination: 1.44799054374; N50: 38839; number_of_contigs: 355; sequence_length: 6587366" role="graphics-symbol" aria-roledescription="point" transform="translate(207.4468085106377,197.8389573582412)" d="M5,0A5,5,0,1,1,-5,0A5,5,0,1,1,5,0" fill="red" stroke="black" stroke-width="0.5" opacity="0.8"/><path aria-label="Completeness (%): 99.6453900709; Contamination (%): 1.47754137116; sequence_quality: LQ; genome_id: GCF_020176775.1; Date: 2021-09-29; Year: 2021; assembly_level: Contig; MIMAG_quality: HQ; Completeness: 99.6453900709; Contamination: 1.47754137116; N50: 29651; number_of_contigs: 360; sequence_length: 6438697" role="graphics-symbol" aria-roledescription="point" transform="translate(212.37194641450014,196.7744462839196)" d="M5,0A5,5,0,1,1,-5,0A5,5,0,1,1,5,0" fill="red" stroke="black" stroke-width="0.5" opacity="0.8"/><path aria-label="Completeness (%): 99.4680851064; Contamination (%): 1.12293144208; sequence_quality: LQ; genome_id: GCF_020176785.1; Date: 2021-09-29; Year: 2021; assembly_level: Contig; MIMAG_quality: HQ; Completeness: 99.4680851064; Contamination: 1.12293144208; N50: 50652; number_of_contigs: 242; sequence_length: 6570791" role="graphics-symbol" aria-roledescription="point" transform="translate(207.4468085106377,209.54857917577888)" d="M5,0A5,5,0,1,1,-5,0A5,5,0,1,1,5,0" fill="red" stroke="black" stroke-width="0.5" opacity="0.8"/><path aria-label="Completeness (%): 99.6453900709; Contamination (%): 1.94575781455; sequence_quality: HQ; genome_id: GCF_022392385.1; Date: 2022-02-25; Year: 2022; assembly_level: Scaffold; MIMAG_quality: HQ; Completeness: 99.6453900709; Contamination: 1.94575781455; N50: 5801759; number_of_contigs: 2; sequence_length: 8181083" role="graphics-symbol" aria-roledescription="point" transform="translate(212.37194641450014,179.907859706335)" d="M5,0A5,5,0,1,1,-5,0A5,5,0,1,1,5,0" fill="blue" stroke="black" stroke-width="0.5" opacity="0.8"/><path aria-label="Completeness (%): 99.6453900709; Contamination (%): 3.42789598109; sequence_quality: LQ; genome_id: GCF_022678645.1; Date: 2022-03-22; Year: 2022; assembly_level: Contig; MIMAG_quality: HQ; Completeness: 99.6453900709; Contamination: 3.42789598109; N50: 115534; number_of_contigs: 184; sequence_length: 9354073" role="graphics-symbol" aria-roledescription="point" transform="translate(212.37194641450014,126.51671537869343)" d="M5,0A5,5,0,1,1,-5,0A5,5,0,1,1,5,0" fill="red" stroke="black" stroke-width="0.5" opacity="0.8"/><path aria-label="Completeness (%): 99.0543735225; Contamination (%): 2.4231678487; sequence_quality: HQ; genome_id: GCF_022828475.1; Date: 2022-04-06; Year: 2022; assembly_level: Complete Genome; MIMAG_quality: HQ; Completeness: 99.0543735225; Contamination: 2.4231678487; N50: 6878695; number_of_contigs: 1; sequence_length: 6878695" role="graphics-symbol" aria-roledescription="point" transform="translate(195.95482006829576,162.71009190562813)" d="M5,0A5,5,0,1,1,-5,0A5,5,0,1,1,5,0" fill="blue" stroke="black" stroke-width="0.5" opacity="0.8"/><path aria-label="Completeness (%): 99.8226950355; Contamination (%): 1.536643026; sequence_quality: HQ; genome_id: GCF_024734405.1; Date: 2022-08-23; Year: 2022; assembly_level: Complete Genome; MIMAG_quality: HQ; Completeness: 99.8226950355; Contamination: 1.536643026; N50: 6344421; number_of_contigs: 1; sequence_length: 6344421" role="graphics-symbol" aria-roledescription="point" transform="translate(217.297084318361,194.6454241352764)" d="M5,0A5,5,0,1,1,-5,0A5,5,0,1,1,5,0" fill="blue" stroke="black" stroke-width="0.5" opacity="0.8"/><path aria-label="Completeness (%): 99.6453900709; Contamination (%): 2.84869976359; sequence_quality: HQ; genome_id: GCF_025643595.1; Date: 2022-10-11; Year: 2022; assembly_level: Complete Genome; MIMAG_quality: HQ; Completeness: 99.6453900709; Contamination: 2.84869976359; N50: 6562638; number_of_contigs: 1; sequence_length: 6562638" role="graphics-symbol" aria-roledescription="point" transform="translate(212.37194641450014,147.38113243539698)" d="M5,0A5,5,0,1,1,-5,0A5,5,0,1,1,5,0" fill="blue" stroke="black" stroke-width="0.5" opacity="0.8"/></g></g><path class="foreground" aria-hidden="true" d="" display="none"/></g></g></g><defs><clipPath id="clip4"><rect x="0" y="0" width="250" height="250"/></clipPath></defs></svg>