<svg xmlns="http://www.w3.org/2000/svg" xmlns:xlink="http://www.w3.org/1999/xlink" version="1.1" class="marks" width="292" height="297" viewBox="0 0 292 297"><rect width="292" height="297" fill="white"/><g fill="none" stroke-miterlimit="10" transform="translate(36,10)"><g class="mark-group role-frame root" role="graphics-object" aria-roledescription="group mark container"><g transform="translate(0,0)"><path class="background" aria-hidden="true" d="M0.5,0.5h250v250h-250Z" stroke="#ddd"/><g><g class="mark-group role-axis" aria-hidden="true"><g transform="translate(0.5,250.5)"><path class="background" aria-hidden="true" d="M0,0h0v0h0Z" pointer-events="none"/><g><g class="mark-rule role-axis-grid" pointer-events="none"><line transform="translate(0,-250)" x2="0" y2="250" stroke="#ddd" stroke-width="1" opacity="1"/><line transform="translate(28,-250)" x2="0" y2="250" stroke="#ddd" stroke-width="1" opacity="1"/><line transform="translate(56,-250)" x2="0" y2="250" stroke="#ddd" stroke-width="1" opacity="1"/><line transform="translate(83,-250)" x2="0" y2="250" stroke="#ddd" stroke-width="1" opacity="1"/><line transform="translate(111,-250)" x2="0" y2="250" stroke="#ddd" stroke-width="1" opacity="1"/><line transform="translate(139,-250)" x2="0" y2="250" stroke="#ddd" stroke-width="1" opacity="1"/><line transform="translate(167,-250)" x2="0" y2="250" stroke="#ddd" stroke-width="1" opacity="1"/><line transform="translate(194,-250)" x2="0" y2="250" stroke="#ddd" stroke-width="1" opacity="1"/><line transform="translate(222,-250)" x2="0" y2="250" stroke="#ddd" stroke-width="1" opacity="1"/><line transform="translate(250,-250)" x2="0" y2="250" stroke="#ddd" stroke-width="1" opacity="1"/></g></g><path class="foreground" aria-hidden="true" d="" pointer-events="none" display="none"/></g></g><g class="mark-group role-axis" aria-hidden="true"><g transform="translate(0.5,0.5)"><path class="background" aria-hidden="true" d="M0,0h0v0h0Z" pointer-events="none"/><g><g class="mark-rule role-axis-grid" pointer-events="none"><line transform="translate(0,250)" x2="250" y2="0" stroke="#ddd" stroke-width="1" opacity="1"/><line transform="translate(0,214)" x2="250" y2="0" stroke="#ddd" stroke-width="1" opacity="1"/><line transform="translate(0,179)" x2="250" y2="0" stroke="#ddd" stroke-width="1" opacity="1"/><line transform="translate(0,143)" x2="250" y2="0" stroke="#ddd" stroke-width="1" opacity="1"/><line transform="translate(0,107)" x2="250" y2="0" stroke="#ddd" stroke-width="1" opacity="1"/><line transform="translate(0,71)" x2="250" y2="0" stroke="#ddd" stroke-width="1" opacity="1"/><line transform="translate(0,36)" x2="250" y2="0" stroke="#ddd" stroke-width="1" opacity="1"/><line transform="translate(0,0)" x2="250" y2="0" stroke="#ddd" stroke-width="1" opacity="1"/></g></g><path class="foreground" aria-hidden="true" d="" pointer-events="none" display="none"/></g></g><g class="mark-group role-axis" role="graphics-symbol" aria-roledescription="axis" aria-label="X-axis titled 'Completeness (%)' for a linear scale with values from 92 to 101"><g transform="translate(0.5,250.5)"><path class="background" aria-hidden="true" d="M0,0h0v0h0Z" pointer-events="none"/><g><g class="mark-rule role-axis-tick" pointer-events="none"><line transform="translate(0,0)" x2="0" y2="5" stroke="#888" stroke-width="1" opacity="1"/><line transform="translate(28,0)" x2="0" y2="5" stroke="#888" stroke-width="1" opacity="1"/><line transform="translate(56,0)" x2="0" y2="5" stroke="#888" stroke-width="1" opacity="1"/><line transform="translate(83,0)" x2="0" y2="5" stroke="#888" stroke-width="1" opacity="1"/><line transform="translate(111,0)" x2="0" y2="5" stroke="#888" stroke-width="1" opacity="1"/><line transform="translate(139,0)" x2="0" y2="5" stroke="#888" stroke-width="1" opacity="1"/><line transform="translate(167,0)" x2="0" y2="5" stroke="#888" stroke-width="1" opacity="1"/><line transform="translate(194,0)" x2="0" y2="5" stroke="#888" stroke-width="1" opacity="1"/><line transform="translate(222,0)" x2="0" y2="5" stroke="#888" stroke-width="1" opacity="1"/><line transform="translate(250,0)" x2="0" y2="5" stroke="#888" stroke-width="1" opacity="1"/></g><g class="mark-text role-axis-label" pointer-events="none"><text text-anchor="start" transform="translate(0,15)" font-family="sans-serif" font-size="10px" fill="#000" opacity="1">92</text><text text-anchor="middle" transform="translate(27.777777777777775,15)" font-family="sans-serif" font-size="10px" fill="#000" opacity="0">93</text><text text-anchor="middle" transform="translate(55.55555555555555,15)" font-family="sans-serif" font-size="10px" fill="#000" opacity="1">94</text><text text-anchor="middle" transform="translate(83.33333333333333,15)" font-family="sans-serif" font-size="10px" fill="#000" opacity="0">95</text><text text-anchor="middle" transform="translate(111.1111111111111,15)" font-family="sans-serif" font-size="10px" fill="#000" opacity="1">96</text><text text-anchor="middle" transform="translate(138.88888888888889,15)" font-family="sans-serif" font-size="10px" fill="#000" opacity="0">97</text><text text-anchor="middle" transform="translate(166.66666666666666,15)" font-family="sans-serif" font-size="10px" fill="#000" opacity="1">98</text><text text-anchor="middle" transform="translate(194.44444444444446,15)" font-family="sans-serif" font-size="10px" fill="#000" opacity="0">99</text><text text-anchor="middle" transform="translate(222.2222222222222,15)" font-family="sans-serif" font-size="10px" fill="#000" opacity="1">100</text><text text-anchor="end" transform="translate(250,15)" font-family="sans-serif" font-size="10px" fill="#000" opacity="0">101</text></g><g class="mark-rule role-axis-domain" pointer-events="none"><line transform="translate(0,0)" x2="250" y2="0" stroke="#888" stroke-width="1" opacity="1"/></g><g class="mark-text role-axis-title" pointer-events="none"><text text-anchor="middle" transform="translate(125,30)" font-family="sans-serif" font-size="12px" font-weight="bold" fill="#000" opacity="1">Completeness (%)</text></g></g><path class="foreground" aria-hidden="true" d="" pointer-events="none" display="none"/></g></g><g class="mark-group role-axis" role="graphics-symbol" aria-roledescription="axis" aria-label="Y-axis titled 'Contamination (%)' for a linear scale with values from 0 to 7"><g transform="translate(0.5,0.5)"><path class="background" aria-hidden="true" d="M0,0h0v0h0Z" pointer-events="none"/><g><g class="mark-rule role-axis-tick" pointer-events="none"><line transform="translate(0,250)" x2="-5" y2="0" stroke="#888" stroke-width="1" opacity="1"/><line transform="translate(0,214)" x2="-5" y2="0" stroke="#888" stroke-width="1" opacity="1"/><line transform="translate(0,179)" x2="-5" y2="0" stroke="#888" stroke-width="1" opacity="1"/><line transform="translate(0,143)" x2="-5" y2="0" stroke="#888" stroke-width="1" opacity="1"/><line transform="translate(0,107)" x2="-5" y2="0" stroke="#888" stroke-width="1" opacity="1"/><line transform="translate(0,71)" x2="-5" y2="0" stroke="#888" stroke-width="1" opacity="1"/><line transform="translate(0,36)" x2="-5" y2="0" stroke="#888" stroke-width="1" opacity="1"/><line transform="translate(0,0)" x2="-5" y2="0" stroke="#888" stroke-width="1" opacity="1"/></g><g class="mark-text role-axis-label" pointer-events="none"><text text-anchor="end" transform="translate(-7,253)" font-family="sans-serif" font-size="10px" fill="#000" opacity="1">0</text><text text-anchor="end" transform="translate(-7,217.2857142857143)" font-family="sans-serif" font-size="10px" fill="#000" opacity="1">1</text><text text-anchor="end" transform="translate(-7,181.57142857142858)" font-family="sans-serif" font-size="10px" fill="#000" opacity="1">2</text><text text-anchor="end" transform="translate(-7,145.85714285714286)" font-family="sans-serif" font-size="10px" fill="#000" opacity="1">3</text><text text-anchor="end" transform="translate(-7,110.14285714285715)" font-family="sans-serif" font-size="10px" fill="#000" opacity="1">4</text><text text-anchor="end" transform="translate(-7,74.42857142857143)" font-family="sans-serif" font-size="10px" fill="#000" opacity="1">5</text><text text-anchor="end" transform="translate(-7,38.71428571428573)" font-family="sans-serif" font-size="10px" fill="#000" opacity="1">6</text><text text-anchor="end" transform="translate(-7,3)" font-family="sans-serif" font-size="10px" fill="#000" opacity="1">7</text></g><g class="mark-rule role-axis-domain" pointer-events="none"><line transform="translate(0,250)" x2="0" y2="-250" stroke="#888" stroke-width="1" opacity="1"/></g><g class="mark-text role-axis-title" pointer-events="none"><text text-anchor="middle" transform="translate(-17.3623046875,125) rotate(-90) translate(0,-3)" font-family="sans-serif" font-size="12px" font-weight="bold" fill="#000" opacity="1">Contamination (%)</text></g></g><path class="foreground" aria-hidden="true" d="" pointer-events="none" display="none"/></g></g><g class="mark-symbol role-mark marks" clip-path="url(#clip1)" role="graphics-object" aria-roledescription="symbol mark container"><path aria-label="sequence_quality: HQ; genome_id: GCF_000062885.1; Date: 2007-03-21; Year: 2007; assembly_level: Complete Genome; MIMAG_quality: HQ; Completeness: 100; Contamination: 1.94575781455; N50: 8212805; number_of_contigs: 1; sequence_length: 8212805; Completeness (%): 100; Contamination (%): 1.94575781455" role="graphics-symbol" aria-roledescription="point" transform="translate(222.2222222222222,180.50864948028067)" d="M5,0A5,5,0,1,1,-5,0A5,5,0,1,1,5,0" fill="blue" stroke="black" stroke-width="0.5" opacity="0.8"/><path aria-label="sequence_quality: LQ; genome_id: GCF_000171635.1; Date: 2009-09-04; Year: 2009; assembly_level: Contig; MIMAG_quality: HQ; Completeness: 99.8226950355; Contamination: 1.76845285001; N50: 80965; number_of_contigs: 241; sequence_length: 8079083; Completeness (%): 99.8226950355; Contamination (%): 1.76845285001" role="graphics-symbol" aria-roledescription="point" transform="translate(217.297084318361,186.84096964238807)" d="M5,0A5,5,0,1,1,-5,0A5,5,0,1,1,5,0" fill="red" stroke="black" stroke-width="0.5" opacity="0.8"/><path aria-label="sequence_quality: MQ; genome_id: GCF_000194155.1; Date: 2011-03-29; Year: 2011; assembly_level: Scaffold; MIMAG_quality: HQ; Completeness: 98.6406619385; Contamination: 2.99776727082; N50: 2392754; number_of_contigs: 22; sequence_length: 8581920; Completeness (%): 98.6406619385; Contamination (%): 2.99776727082" role="graphics-symbol" aria-roledescription="point" transform="translate(184.4628316259522,142.9368831851101)" d="M5,0A5,5,0,1,1,-5,0A5,5,0,1,1,5,0" fill="orange" stroke="black" stroke-width="0.5" opacity="0.8"/><path aria-label="sequence_quality: LQ; genome_id: GCF_000448385.1; Date: 2013-08-20; Year: 2013; assembly_level: Contig; MIMAG_quality: HQ; Completeness: 98.5224586288; Contamination: 1.5780141844; N50: 37346; number_of_contigs: 384; sequence_length: 7969918; Completeness (%): 98.5224586288; Contamination (%): 1.5780141844" role="graphics-symbol" aria-roledescription="point" transform="translate(181.17940635671164,193.64235055724416)" d="M5,0A5,5,0,1,1,-5,0A5,5,0,1,1,5,0" fill="red" stroke="black" stroke-width="0.5" opacity="0.8"/><path aria-label="sequence_quality: LQ; genome_id: GCF_000497205.1; Date: 2013-11-18; Year: 2013; assembly_level: Contig; MIMAG_quality: HQ; Completeness: 99.3794326241; Contamination: 1.24113475177; N50: 52597; number_of_contigs: 182; sequence_length: 3977051; Completeness (%): 99.3794326241; Contamination (%): 1.24113475177" role="graphics-symbol" aria-roledescription="point" transform="translate(204.9842395587077,205.67375886524826)" d="M5,0A5,5,0,1,1,-5,0A5,5,0,1,1,5,0" fill="red" stroke="black" stroke-width="0.5" opacity="0.8"/><path aria-label="sequence_quality: LQ; genome_id: GCF_000710755.1; Date: 2014-06-23; Year: 2014; assembly_level: Contig; MIMAG_quality: HQ; Completeness: 99.4680851064; Contamination: 0.886524822695; N50: 266613; number_of_contigs: 50; sequence_length: 3961468; Completeness (%): 99.4680851064; Contamination (%): 0.886524822695" role="graphics-symbol" aria-roledescription="point" transform="translate(207.4468085106377,218.33839918946302)" d="M5,0A5,5,0,1,1,-5,0A5,5,0,1,1,5,0" fill="red" stroke="black" stroke-width="0.5" opacity="0.8"/><path aria-label="sequence_quality: LQ; genome_id: GCF_900106995.1; Date: 2016-10-22; Year: 2016; assembly_level: Scaffold; MIMAG_quality: MQ; Completeness: 99.6453900709; Contamination: 5.00131337011; N50: 134752; number_of_contigs: 135; sequence_length: 10151409; Completeness (%): 99.6453900709; Contamination (%): 5.00131337011" role="graphics-symbol" aria-roledescription="point" transform="translate(212.37194641450014,71.38166535329657)" d="M5,0A5,5,0,1,1,-5,0A5,5,0,1,1,5,0" fill="red" stroke="black" stroke-width="0.5" opacity="0.8"/><path aria-label="sequence_quality: MQ; genome_id: GCF_900108315.1; Date: 2016-10-24; Year: 2016; assembly_level: Scaffold; MIMAG_quality: HQ; Completeness: 99.6453900709; Contamination: 2.72458628842; N50: 729242; number_of_contigs: 27; sequence_length: 7744048; Completeness (%): 99.6453900709; Contamination (%): 2.72458628842" role="graphics-symbol" aria-roledescription="point" transform="translate(212.37194641450014,152.693346842283)" d="M5,0A5,5,0,1,1,-5,0A5,5,0,1,1,5,0" fill="orange" stroke="black" stroke-width="0.5" opacity="0.8"/><path aria-label="sequence_quality: MQ; genome_id: GCF_900112555.1; Date: 2016-11-05; Year: 2016; assembly_level: Scaffold; MIMAG_quality: HQ; Completeness: 99.5271867612; Contamination: 2.72458628842; N50: 406024; number_of_contigs: 28; sequence_length: 7777251; Completeness (%): 99.5271867612; Contamination (%): 2.72458628842" role="graphics-symbol" aria-roledescription="point" transform="translate(209.08852114525877,152.693346842283)" d="M5,0A5,5,0,1,1,-5,0A5,5,0,1,1,5,0" fill="orange" stroke="black" stroke-width="0.5" opacity="0.8"/><path aria-label="sequence_quality: MQ; genome_id: GCF_900114905.1; Date: 2016-11-05; Year: 2016; assembly_level: Scaffold; MIMAG_quality: HQ; Completeness: 100; Contamination: 3.18557919622; N50: 345124; number_of_contigs: 43; sequence_length: 8219321; Completeness (%): 100; Contamination (%): 3.18557919622" role="graphics-symbol" aria-roledescription="point" transform="translate(222.2222222222222,136.22931442080377)" d="M5,0A5,5,0,1,1,-5,0A5,5,0,1,1,5,0" fill="orange" stroke="black" stroke-width="0.5" opacity="0.8"/><path aria-label="sequence_quality: MQ; genome_id: GCF_900116135.1; Date: 2016-11-05; Year: 2016; assembly_level: Scaffold; MIMAG_quality: HQ; Completeness: 99.4680851064; Contamination: 1.75531914894; N50: 505605; number_of_contigs: 22; sequence_length: 6291299; Completeness (%): 99.4680851064; Contamination (%): 1.75531914894" role="graphics-symbol" aria-roledescription="point" transform="translate(207.4468085106377,187.31003039513678)" d="M5,0A5,5,0,1,1,-5,0A5,5,0,1,1,5,0" fill="orange" stroke="black" stroke-width="0.5" opacity="0.8"/><path aria-label="sequence_quality: HQ; genome_id: GCF_002564065.1; Date: 2017-10-17; Year: 2017; assembly_level: Contig; MIMAG_quality: HQ; Completeness: 100; Contamination: 1.94575781455; N50: 8230103; number_of_contigs: 1; sequence_length: 8230103; Completeness (%): 100; Contamination (%): 1.94575781455" role="graphics-symbol" aria-roledescription="point" transform="translate(222.2222222222222,180.50864948028067)" d="M5,0A5,5,0,1,1,-5,0A5,5,0,1,1,5,0" fill="blue" stroke="black" stroke-width="0.5" opacity="0.8"/><path aria-label="sequence_quality: HQ; genome_id: GCF_002846475.1; Date: 2017-12-21; Year: 2017; assembly_level: Contig; MIMAG_quality: HQ; Completeness: 99.5271867612; Contamination: 3.24599422117; N50: 9020646; number_of_contigs: 1; sequence_length: 9020646; Completeness (%): 99.5271867612; Contamination (%): 3.24599422117" role="graphics-symbol" aria-roledescription="point" transform="translate(209.08852114525877,134.07163495815976)" d="M5,0A5,5,0,1,1,-5,0A5,5,0,1,1,5,0" fill="blue" stroke="black" stroke-width="0.5" opacity="0.8"/><path aria-label="sequence_quality: HQ; genome_id: GCF_003635025.1; Date: 2018-10-11; Year: 2018; assembly_level: Contig; MIMAG_quality: HQ; Completeness: 100; Contamination: 3.18557919622; N50: 8125734; number_of_contigs: 2; sequence_length: 8266186; Completeness (%): 100; Contamination (%): 3.18557919622" role="graphics-symbol" aria-roledescription="point" transform="translate(222.2222222222222,136.22931442080377)" d="M5,0A5,5,0,1,1,-5,0A5,5,0,1,1,5,0" fill="blue" stroke="black" stroke-width="0.5" opacity="0.8"/><path aria-label="sequence_quality: MQ; genome_id: GCF_003931915.1; Date: 2018-12-09; Year: 2018; assembly_level: Scaffold; MIMAG_quality: HQ; Completeness: 100; Contamination: 1.48936170213; N50: 345543; number_of_contigs: 35; sequence_length: 5824618; Completeness (%): 100; Contamination (%): 1.48936170213" role="graphics-symbol" aria-roledescription="point" transform="translate(222.2222222222222,196.8085106382979)" d="M5,0A5,5,0,1,1,-5,0A5,5,0,1,1,5,0" fill="orange" stroke="black" stroke-width="0.5" opacity="0.8"/><path aria-label="sequence_quality: LQ; genome_id: GCF_004348435.1; Date: 2019-03-13; Year: 2019; assembly_level: Contig; MIMAG_quality: HQ; Completeness: 99.8226950355; Contamination: 2.19858156028; N50: 81009; number_of_contigs: 167; sequence_length: 6653094; Completeness (%): 99.8226950355; Contamination (%): 2.19858156028" role="graphics-symbol" aria-roledescription="point" transform="translate(217.297084318361,171.47922998986832)" d="M5,0A5,5,0,1,1,-5,0A5,5,0,1,1,5,0" fill="red" stroke="black" stroke-width="0.5" opacity="0.8"/><path aria-label="sequence_quality: LQ; genome_id: GCF_004348445.1; Date: 2019-03-13; Year: 2019; assembly_level: Contig; MIMAG_quality: HQ; Completeness: 99.8226950355; Contamination: 1.75531914894; N50: 157189; number_of_contigs: 83; sequence_length: 6008184; Completeness (%): 99.8226950355; Contamination (%): 1.75531914894" role="graphics-symbol" aria-roledescription="point" transform="translate(217.297084318361,187.31003039513678)" d="M5,0A5,5,0,1,1,-5,0A5,5,0,1,1,5,0" fill="red" stroke="black" stroke-width="0.5" opacity="0.8"/><path aria-label="sequence_quality: LQ; genome_id: GCF_004349225.1; Date: 2019-03-13; Year: 2019; assembly_level: Contig; MIMAG_quality: HQ; Completeness: 99.8226950355; Contamination: 3.16916206987; N50: 92552; number_of_contigs: 137; sequence_length: 6670713; Completeness (%): 99.8226950355; Contamination (%): 3.16916206987" role="graphics-symbol" aria-roledescription="point" transform="translate(217.297084318361,136.81564036173967)" d="M5,0A5,5,0,1,1,-5,0A5,5,0,1,1,5,0" fill="red" stroke="black" stroke-width="0.5" opacity="0.8"/><path aria-label="sequence_quality: LQ; genome_id: GCF_004348985.1; Date: 2019-03-13; Year: 2019; assembly_level: Contig; MIMAG_quality: HQ; Completeness: 99.6453900709; Contamination: 3.87838192803; N50: 104630; number_of_contigs: 277; sequence_length: 10298286; Completeness (%): 99.6453900709; Contamination (%): 3.87838192803" role="graphics-symbol" aria-roledescription="point" transform="translate(212.37194641450014,111.48635971331005)" d="M5,0A5,5,0,1,1,-5,0A5,5,0,1,1,5,0" fill="red" stroke="black" stroke-width="0.5" opacity="0.8"/><path aria-label="sequence_quality: MQ; genome_id: GCF_007829955.1; Date: 2019-08-02; Year: 2019; assembly_level: Contig; MIMAG_quality: HQ; Completeness: 97.3404255319; Contamination: 3.8829787234; N50: 1390797; number_of_contigs: 8; sequence_length: 6410624; Completeness (%): 97.3404255319; Contamination (%): 3.8829787234" role="graphics-symbol" aria-roledescription="point" transform="translate(148.34515366430207,111.32218844984804)" d="M5,0A5,5,0,1,1,-5,0A5,5,0,1,1,5,0" fill="orange" stroke="black" stroke-width="0.5" opacity="0.8"/><path aria-label="sequence_quality: MQ; genome_id: GCF_008630535.1; Date: 2019-09-20; Year: 2019; assembly_level: Contig; MIMAG_quality: HQ; Completeness: 99.438534279; Contamination: 2.62411347518; N50: 504440; number_of_contigs: 46; sequence_length: 7549392; Completeness (%): 99.438534279; Contamination (%): 2.62411347518" role="graphics-symbol" aria-roledescription="point" transform="translate(206.62595219332835,156.28166160081054)" d="M5,0A5,5,0,1,1,-5,0A5,5,0,1,1,5,0" fill="orange" stroke="black" stroke-width="0.5" opacity="0.8"/><path aria-label="sequence_quality: HQ; genome_id: GCF_012277335.1; Date: 2020-04-14; Year: 2020; assembly_level: Complete Genome; MIMAG_quality: HQ; Completeness: 99.8817966903; Contamination: 3.05095876018; N50: 8045912; number_of_contigs: 1; sequence_length: 8045912; Completeness (%): 99.8817966903; Contamination (%): 3.05095876018" role="graphics-symbol" aria-roledescription="point" transform="translate(218.93879695298165,141.03718713647788)" d="M5,0A5,5,0,1,1,-5,0A5,5,0,1,1,5,0" fill="blue" stroke="black" stroke-width="0.5" opacity="0.8"/><path aria-label="sequence_quality: HQ; genome_id: GCF_013410345.1; Date: 2020-07-13; Year: 2020; assembly_level: Contig; MIMAG_quality: HQ; Completeness: 99.6453900709; Contamination: 1.84397163121; N50: 5783988; number_of_contigs: 1; sequence_length: 5783988; Completeness (%): 99.6453900709; Contamination (%): 1.84397163121" role="graphics-symbol" aria-roledescription="point" transform="translate(212.37194641450014,184.14387031408307)" d="M5,0A5,5,0,1,1,-5,0A5,5,0,1,1,5,0" fill="blue" stroke="black" stroke-width="0.5" opacity="0.8"/><path aria-label="sequence_quality: HQ; genome_id: GCF_014203325.1; Date: 2020-08-14; Year: 2020; assembly_level: Contig; MIMAG_quality: HQ; Completeness: 99.4680851064; Contamination: 1.536643026; N50: 6825909; number_of_contigs: 1; sequence_length: 6825909; Completeness (%): 99.4680851064; Contamination (%): 1.536643026" role="graphics-symbol" aria-roledescription="point" transform="translate(207.4468085106377,195.11989192840258)" d="M5,0A5,5,0,1,1,-5,0A5,5,0,1,1,5,0" fill="blue" stroke="black" stroke-width="0.5" opacity="0.8"/><path aria-label="sequence_quality: HQ; genome_id: GCF_014203395.1; Date: 2020-08-14; Year: 2020; assembly_level: Contig; MIMAG_quality: HQ; Completeness: 99.2907801418; Contamination: 4.0780141844; N50: 5889697; number_of_contigs: 6; sequence_length: 8541735; Completeness (%): 99.2907801418; Contamination (%): 4.0780141844" role="graphics-symbol" aria-roledescription="point" transform="translate(202.52167060677647,104.35663627152988)" d="M5,0A5,5,0,1,1,-5,0A5,5,0,1,1,5,0" fill="blue" stroke="black" stroke-width="0.5" opacity="0.8"/><path aria-label="sequence_quality: HQ; genome_id: GCF_014490055.1; Date: 2020-09-07; Year: 2020; assembly_level: Complete Genome; MIMAG_quality: HQ; Completeness: 99.5271867612; Contamination: 3.24599422117; N50: 8876435; number_of_contigs: 1; sequence_length: 8876435; Completeness (%): 99.5271867612; Contamination (%): 3.24599422117" role="graphics-symbol" aria-roledescription="point" transform="translate(209.08852114525877,134.07163495815976)" d="M5,0A5,5,0,1,1,-5,0A5,5,0,1,1,5,0" fill="blue" stroke="black" stroke-width="0.5" opacity="0.8"/><path aria-label="sequence_quality: LQ; genome_id: GCF_014646075.1; Date: 2020-09-12; Year: 2020; assembly_level: Scaffold; MIMAG_quality: HQ; Completeness: 100; Contamination: 1.78486997636; N50: 243658; number_of_contigs: 59; sequence_length: 5359807; Completeness (%): 100; Contamination (%): 1.78486997636" role="graphics-symbol" aria-roledescription="point" transform="translate(222.2222222222222,186.25464370145224)" d="M5,0A5,5,0,1,1,-5,0A5,5,0,1,1,5,0" fill="red" stroke="black" stroke-width="0.5" opacity="0.8"/><path aria-label="sequence_quality: HQ; genome_id: GCF_014697215.1; Date: 2020-09-22; Year: 2020; assembly_level: Complete Genome; MIMAG_quality: MQ; Completeness: 99.8817966903; Contamination: 5.94309354948; N50: 9436548; number_of_contigs: 3; sequence_length: 9608180; Completeness (%): 99.8817966903; Contamination (%): 5.94309354948" role="graphics-symbol" aria-roledescription="point" transform="translate(218.93879695298165,37.74665894726684)" d="M5,0A5,5,0,1,1,-5,0A5,5,0,1,1,5,0" fill="blue" stroke="black" stroke-width="0.5" opacity="0.8"/><path aria-label="sequence_quality: LQ; genome_id: GCF_015209505.1; Date: 2020-11-02; Year: 2020; assembly_level: Contig; MIMAG_quality: HQ; Completeness: 92.3758865248; Contamination: 1.24113475177; N50: 179605; number_of_contigs: 52; sequence_length: 4162025; Completeness (%): 92.3758865248; Contamination (%): 1.24113475177" role="graphics-symbol" aria-roledescription="point" transform="translate(10.44129235618543,205.67375886524826)" d="M5,0A5,5,0,1,1,-5,0A5,5,0,1,1,5,0" fill="red" stroke="black" stroke-width="0.5" opacity="0.8"/><path aria-label="sequence_quality: MQ; genome_id: GCF_016526145.1; Date: 2021-01-05; Year: 2021; assembly_level: Scaffold; MIMAG_quality: HQ; Completeness: 99.4680851064; Contamination: 1.47754137116; N50: 454807; number_of_contigs: 34; sequence_length: 6397171; Completeness (%): 99.4680851064; Contamination (%): 1.47754137116" role="graphics-symbol" aria-roledescription="point" transform="translate(207.4468085106377,197.23066531577172)" d="M5,0A5,5,0,1,1,-5,0A5,5,0,1,1,5,0" fill="orange" stroke="black" stroke-width="0.5" opacity="0.8"/><path aria-label="sequence_quality: HQ; genome_id: GCF_016859185.1; Date: 2021-02-10; Year: 2021; assembly_level: Complete Genome; MIMAG_quality: HQ; Completeness: 100; Contamination: 2.65497767271; N50: 8305652; number_of_contigs: 1; sequence_length: 8305652; Completeness (%): 100; Contamination (%): 2.65497767271" role="graphics-symbol" aria-roledescription="point" transform="translate(222.2222222222222,155.1793688318511)" d="M5,0A5,5,0,1,1,-5,0A5,5,0,1,1,5,0" fill="blue" stroke="black" stroke-width="0.5" opacity="0.8"/><path aria-label="sequence_quality: MQ; genome_id: GCF_018070075.1; Date: 2021-04-18; Year: 2021; assembly_level: Contig; MIMAG_quality: HQ; Completeness: 99.8226950355; Contamination: 2.86183346467; N50: 363995; number_of_contigs: 34; sequence_length: 7167017; Completeness (%): 99.8226950355; Contamination (%): 2.86183346467" role="graphics-symbol" aria-roledescription="point" transform="translate(217.297084318361,147.79166197605915)" d="M5,0A5,5,0,1,1,-5,0A5,5,0,1,1,5,0" fill="orange" stroke="black" stroke-width="0.5" opacity="0.8"/><path aria-label="sequence_quality: HQ; genome_id: GCF_018141105.1; Date: 2021-04-27; Year: 2021; assembly_level: Complete Genome; MIMAG_quality: HQ; Completeness: 99.6453900709; Contamination: 2.28263724718; N50: 8243897; number_of_contigs: 1; sequence_length: 8243897; Completeness (%): 99.6453900709; Contamination (%): 2.28263724718" role="graphics-symbol" aria-roledescription="point" transform="translate(212.37194641450014,168.47724117227665)" d="M5,0A5,5,0,1,1,-5,0A5,5,0,1,1,5,0" fill="blue" stroke="black" stroke-width="0.5" opacity="0.8"/><path aria-label="sequence_quality: LQ; genome_id: GCF_020177435.1; Date: 2021-09-29; Year: 2021; assembly_level: Contig; MIMAG_quality: HQ; Completeness: 99.8226950355; Contamination: 1.44799054374; N50: 40461; number_of_contigs: 291; sequence_length: 6480769; Completeness (%): 99.8226950355; Contamination (%): 1.44799054374" role="graphics-symbol" aria-roledescription="point" transform="translate(217.297084318361,198.28605200945626)" d="M5,0A5,5,0,1,1,-5,0A5,5,0,1,1,5,0" fill="red" stroke="black" stroke-width="0.5" opacity="0.8"/><path aria-label="sequence_quality: LQ; genome_id: GCF_020177455.1; Date: 2021-09-29; Year: 2021; assembly_level: Contig; MIMAG_quality: HQ; Completeness: 99.4680851064; Contamination: 1.44799054374; N50: 38839; number_of_contigs: 355; sequence_length: 6587366; Completeness (%): 99.4680851064; Contamination (%): 1.44799054374" role="graphics-symbol" aria-roledescription="point" transform="translate(207.4468085106377,198.28605200945626)" d="M5,0A5,5,0,1,1,-5,0A5,5,0,1,1,5,0" fill="red" stroke="black" stroke-width="0.5" opacity="0.8"/><path aria-label="sequence_quality: LQ; genome_id: GCF_020176775.1; Date: 2021-09-29; Year: 2021; assembly_level: Contig; MIMAG_quality: HQ; Completeness: 99.6453900709; Contamination: 1.47754137116; N50: 29651; number_of_contigs: 360; sequence_length: 6438697; Completeness (%): 99.6453900709; Contamination (%): 1.47754137116" role="graphics-symbol" aria-roledescription="point" transform="translate(212.37194641450014,197.23066531577172)" d="M5,0A5,5,0,1,1,-5,0A5,5,0,1,1,5,0" fill="red" stroke="black" stroke-width="0.5" opacity="0.8"/><path aria-label="sequence_quality: LQ; genome_id: GCF_020176785.1; Date: 2021-09-29; Year: 2021; assembly_level: Contig; MIMAG_quality: HQ; Completeness: 99.4680851064; Contamination: 1.12293144208; N50: 50652; number_of_contigs: 242; sequence_length: 6570791; Completeness (%): 99.4680851064; Contamination (%): 1.12293144208" role="graphics-symbol" aria-roledescription="point" transform="translate(207.4468085106377,209.89530563998647)" d="M5,0A5,5,0,1,1,-5,0A5,5,0,1,1,5,0" fill="red" stroke="black" stroke-width="0.5" opacity="0.8"/><path aria-label="sequence_quality: HQ; genome_id: GCF_022392385.1; Date: 2022-02-25; Year: 2022; assembly_level: Scaffold; MIMAG_quality: HQ; Completeness: 99.6453900709; Contamination: 1.94575781455; N50: 5801759; number_of_contigs: 2; sequence_length: 8181083; Completeness (%): 99.6453900709; Contamination (%): 1.94575781455" role="graphics-symbol" aria-roledescription="point" transform="translate(212.37194641450014,180.50864948028067)" d="M5,0A5,5,0,1,1,-5,0A5,5,0,1,1,5,0" fill="blue" stroke="black" stroke-width="0.5" opacity="0.8"/><path aria-label="sequence_quality: LQ; genome_id: GCF_022678645.1; Date: 2022-03-22; Year: 2022; assembly_level: Contig; MIMAG_quality: HQ; Completeness: 99.6453900709; Contamination: 3.42789598109; N50: 115534; number_of_contigs: 184; sequence_length: 9354073; Completeness (%): 99.6453900709; Contamination (%): 3.42789598109" role="graphics-symbol" aria-roledescription="point" transform="translate(212.37194641450014,127.57514353259036)" d="M5,0A5,5,0,1,1,-5,0A5,5,0,1,1,5,0" fill="red" stroke="black" stroke-width="0.5" opacity="0.8"/><path aria-label="sequence_quality: HQ; genome_id: GCF_022828475.1; Date: 2022-04-06; Year: 2022; assembly_level: Complete Genome; MIMAG_quality: HQ; Completeness: 99.0543735225; Contamination: 2.4231678487; N50: 6878695; number_of_contigs: 1; sequence_length: 6878695; Completeness (%): 99.0543735225; Contamination (%): 2.4231678487" role="graphics-symbol" aria-roledescription="point" transform="translate(195.95482006829576,163.45829111786557)" d="M5,0A5,5,0,1,1,-5,0A5,5,0,1,1,5,0" fill="blue" stroke="black" stroke-width="0.5" opacity="0.8"/><path aria-label="sequence_quality: HQ; genome_id: GCF_024734405.1; Date: 2022-08-23; Year: 2022; assembly_level: Complete Genome; MIMAG_quality: HQ; Completeness: 99.8226950355; Contamination: 1.536643026; N50: 6344421; number_of_contigs: 1; sequence_length: 6344421; Completeness (%): 99.8226950355; Contamination (%): 1.536643026" role="graphics-symbol" aria-roledescription="point" transform="translate(217.297084318361,195.11989192840258)" d="M5,0A5,5,0,1,1,-5,0A5,5,0,1,1,5,0" fill="blue" stroke="black" stroke-width="0.5" opacity="0.8"/><path aria-label="sequence_quality: HQ; genome_id: GCF_025643595.1; Date: 2022-10-11; Year: 2022; assembly_level: Complete Genome; MIMAG_quality: HQ; Completeness: 99.6453900709; Contamination: 2.84869976359; N50: 6562638; number_of_contigs: 1; sequence_length: 6562638; Completeness (%): 99.6453900709; Contamination (%): 2.84869976359" role="graphics-symbol" aria-roledescription="point" transform="translate(212.37194641450014,148.26072272880782)" d="M5,0A5,5,0,1,1,-5,0A5,5,0,1,1,5,0" fill="blue" stroke="black" stroke-width="0.5" opacity="0.8"/></g></g><path class="foreground" aria-hidden="true" d="" display="none"/></g></g></g><defs><clipPath id="clip1"><rect x="0" y="0" width="250" height="250"/></clipPath></defs></svg>