<svg xmlns="http://www.w3.org/2000/svg" xmlns:xlink="http://www.w3.org/1999/xlink" version="1.1" class="marks" width="308" height="340" viewBox="0 0 308 340"><rect width="308" height="340" fill="white"/><g fill="none" stroke-miterlimit="10" transform="translate(52,53)"><g class="mark-group role-frame root" role="graphics-object" aria-roledescription="group mark container"><g transform="translate(0,0)"><path class="background" aria-hidden="true" d="M0.5,0.5h250v250h-250Z" stroke="#ddd"/><g><g class="mark-group role-axis" aria-hidden="true"><g transform="translate(0.5,250.5)"><path class="background" aria-hidden="true" d="M0,0h0v0h0Z" pointer-events="none"/><g><g class="mark-rule role-axis-grid" pointer-events="none"><line transform="translate(0,-250)" x2="0" y2="250" stroke="#ddd" stroke-width="1" opacity="1"/><line transform="translate(36,-250)" x2="0" y2="250" stroke="#ddd" stroke-width="1" opacity="1"/><line transform="translate(71,-250)" x2="0" y2="250" stroke="#ddd" stroke-width="1" opacity="1"/><line transform="translate(107,-250)" x2="0" y2="250" stroke="#ddd" stroke-width="1" opacity="1"/><line transform="translate(143,-250)" x2="0" y2="250" stroke="#ddd" stroke-width="1" opacity="1"/><line transform="translate(179,-250)" x2="0" y2="250" stroke="#ddd" stroke-width="1" opacity="1"/><line transform="translate(214,-250)" x2="0" y2="250" stroke="#ddd" stroke-width="1" opacity="1"/><line transform="translate(250,-250)" x2="0" y2="250" stroke="#ddd" stroke-width="1" opacity="1"/></g></g><path class="foreground" aria-hidden="true" d="" pointer-events="none" display="none"/></g></g><g class="mark-group role-axis" aria-hidden="true"><g transform="translate(0.5,0.5)"><path class="background" aria-hidden="true" d="M0,0h0v0h0Z" pointer-events="none"/><g><g class="mark-rule role-axis-grid" pointer-events="none"><line transform="translate(0,236)" x2="250" y2="0" stroke="#ddd" stroke-width="1" opacity="1"/><line transform="translate(0,203)" x2="250" y2="0" stroke="#ddd" stroke-width="1" opacity="1"/><line transform="translate(0,171)" x2="250" y2="0" stroke="#ddd" stroke-width="1" opacity="1"/><line transform="translate(0,138)" x2="250" y2="0" stroke="#ddd" stroke-width="1" opacity="1"/><line transform="translate(0,105)" x2="250" y2="0" stroke="#ddd" stroke-width="1" opacity="1"/><line transform="translate(0,72)" x2="250" y2="0" stroke="#ddd" stroke-width="1" opacity="1"/><line transform="translate(0,40)" x2="250" y2="0" stroke="#ddd" stroke-width="1" opacity="1"/><line transform="translate(0,7)" x2="250" y2="0" stroke="#ddd" stroke-width="1" opacity="1"/></g></g><path class="foreground" aria-hidden="true" d="" pointer-events="none" display="none"/></g></g><g class="mark-group role-axis" role="graphics-symbol" aria-roledescription="axis" aria-label="X-axis titled 'GC Content' for a linear scale with values from 67% to 74%"><g transform="translate(0.5,250.5)"><path class="background" aria-hidden="true" d="M0,0h0v0h0Z" pointer-events="none"/><g><g class="mark-rule role-axis-tick" pointer-events="none"><line transform="translate(0,0)" x2="0" y2="5" stroke="#888" stroke-width="1" opacity="1"/><line transform="translate(36,0)" x2="0" y2="5" stroke="#888" stroke-width="1" opacity="1"/><line transform="translate(71,0)" x2="0" y2="5" stroke="#888" stroke-width="1" opacity="1"/><line transform="translate(107,0)" x2="0" y2="5" stroke="#888" stroke-width="1" opacity="1"/><line transform="translate(143,0)" x2="0" y2="5" stroke="#888" stroke-width="1" opacity="1"/><line transform="translate(179,0)" x2="0" y2="5" stroke="#888" stroke-width="1" opacity="1"/><line transform="translate(214,0)" x2="0" y2="5" stroke="#888" stroke-width="1" opacity="1"/><line transform="translate(250,0)" x2="0" y2="5" stroke="#888" stroke-width="1" opacity="1"/></g><g class="mark-text role-axis-label" pointer-events="none"><text text-anchor="start" transform="translate(0,15)" font-family="sans-serif" font-size="10px" fill="#000" opacity="1">67%</text><text text-anchor="middle" transform="translate(35.714285714285765,15)" font-family="sans-serif" font-size="10px" fill="#000" opacity="1">68%</text><text text-anchor="middle" transform="translate(71.42857142857115,15)" font-family="sans-serif" font-size="10px" fill="#000" opacity="1">69%</text><text text-anchor="middle" transform="translate(107.14285714285691,15)" font-family="sans-serif" font-size="10px" fill="#000" opacity="1">70%</text><text text-anchor="middle" transform="translate(142.8571428571427,15)" font-family="sans-serif" font-size="10px" fill="#000" opacity="1">71%</text><text text-anchor="middle" transform="translate(178.57142857142847,15)" font-family="sans-serif" font-size="10px" fill="#000" opacity="1">72%</text><text text-anchor="middle" transform="translate(214.28571428571422,15)" font-family="sans-serif" font-size="10px" fill="#000" opacity="1">73%</text><text text-anchor="end" transform="translate(250,15)" font-family="sans-serif" font-size="10px" fill="#000" opacity="1">74%</text></g><g class="mark-rule role-axis-domain" pointer-events="none"><line transform="translate(0,0)" x2="250" y2="0" stroke="#888" stroke-width="1" opacity="1"/></g><g class="mark-text role-axis-title" pointer-events="none"><text text-anchor="middle" transform="translate(125,30)" font-family="sans-serif" font-size="12px" font-weight="bold" fill="#000" opacity="1">GC Content</text></g></g><path class="foreground" aria-hidden="true" d="" pointer-events="none" display="none"/></g></g><g class="mark-group role-axis" role="graphics-symbol" aria-roledescription="axis" aria-label="Y-axis titled 'Genome Length (bp)' for a linear scale with values from 5.8M to 9.6M"><g transform="translate(0.5,0.5)"><path class="background" aria-hidden="true" d="M0,0h0v0h0Z" pointer-events="none"/><g><g class="mark-rule role-axis-tick" pointer-events="none"><line transform="translate(0,236)" x2="-5" y2="0" stroke="#888" stroke-width="1" opacity="1"/><line transform="translate(0,203)" x2="-5" y2="0" stroke="#888" stroke-width="1" opacity="1"/><line transform="translate(0,171)" x2="-5" y2="0" stroke="#888" stroke-width="1" opacity="1"/><line transform="translate(0,138)" x2="-5" y2="0" stroke="#888" stroke-width="1" opacity="1"/><line transform="translate(0,105)" x2="-5" y2="0" stroke="#888" stroke-width="1" opacity="1"/><line transform="translate(0,72)" x2="-5" y2="0" stroke="#888" stroke-width="1" opacity="1"/><line transform="translate(0,40)" x2="-5" y2="0" stroke="#888" stroke-width="1" opacity="1"/><line transform="translate(0,7)" x2="-5" y2="0" stroke="#888" stroke-width="1" opacity="1"/></g><g class="mark-text role-axis-label" pointer-events="none"><text text-anchor="end" transform="translate(-7,238.87857399643386)" font-family="sans-serif" font-size="10px" fill="#000" opacity="1">6.0M</text><text text-anchor="end" transform="translate(-7,206.19193406691565)" font-family="sans-serif" font-size="10px" fill="#000" opacity="1">6.5M</text><text text-anchor="end" transform="translate(-7,173.50529413739747)" font-family="sans-serif" font-size="10px" fill="#000" opacity="1">7.0M</text><text text-anchor="end" transform="translate(-7,140.81865420787926)" font-family="sans-serif" font-size="10px" fill="#000" opacity="1">7.5M</text><text text-anchor="end" transform="translate(-7,108.13201427836105)" font-family="sans-serif" font-size="10px" fill="#000" opacity="1">8.0M</text><text text-anchor="end" transform="translate(-7,75.44537434884288)" font-family="sans-serif" font-size="10px" fill="#000" opacity="1">8.5M</text><text text-anchor="end" transform="translate(-7,42.758734419324675)" font-family="sans-serif" font-size="10px" fill="#000" opacity="1">9.0M</text><text text-anchor="end" transform="translate(-7,10.072094489806474)" font-family="sans-serif" font-size="10px" fill="#000" opacity="1">9.5M</text></g><g class="mark-rule role-axis-domain" pointer-events="none"><line transform="translate(0,250)" x2="0" y2="-250" stroke="#888" stroke-width="1" opacity="1"/></g><g class="mark-text role-axis-title" pointer-events="none"><text text-anchor="middle" transform="translate(-33.2314453125,125) rotate(-90) translate(0,-3)" font-family="sans-serif" font-size="12px" font-weight="bold" fill="#000" opacity="1">Genome Length (bp)</text></g></g><path class="foreground" aria-hidden="true" d="" pointer-events="none" display="none"/></g></g><g class="mark-symbol role-mark marks" role="graphics-object" aria-roledescription="symbol mark container"><path aria-label="gc: 70.3862%; Total: 8.3M; phylogroup: P1; Sequence Quality: HQ; genome_id: GCF_003635025.1; Organism: s__Saccharopolyspora antimicrobica; Count: 2; N50: 8125734; AuN: 7990054.88179; Min: 140452; Max: 8125734" role="graphics-symbol" aria-roledescription="point" transform="translate(120.9369195695052,87.7305624058036)" d="M5,0A5,5,0,1,1,-5,0A5,5,0,1,1,5,0" fill="#264653" stroke="black" stroke-width="0.5" opacity="0.8"/><path aria-label="gc: 70.4331%; Total: 8.2M; phylogroup: P1; Sequence Quality: MQ; genome_id: GCF_900114905.1; Organism: s__Saccharopolyspora antimicrobica; Count: 43; N50: 345124; AuN: 667698.409014; Min: 1089; Max: 1889235" role="graphics-symbol" aria-roledescription="point" transform="translate(122.61159178973382,90.79428116639734)" d="M-5,-5h10v10h-10Z" fill="#264653" stroke="black" stroke-width="0.5" opacity="0.8"/><path aria-label="gc: 69.7002%; Total: 6.4M; phylogroup: P5; Sequence Quality: MQ; genome_id: GCF_007829955.1; Organism: s__Saccharopolyspora dendranthemae; Count: 8; N50: 1390797; AuN: 1194207.1033; Min: 108233; Max: 1972629" role="graphics-symbol" aria-roledescription="point" transform="translate(96.43473976056875,209.0347363275969)" d="M-5,-5h10v10h-10Z" fill="#f4a261" stroke="black" stroke-width="0.5" opacity="0.8"/><path aria-label="gc: 69.7526%; Total: 7.2M; phylogroup: P5; Sequence Quality: MQ; genome_id: GCF_018070075.1; Organism: s__Saccharopolyspora endophytica; Count: 34; N50: 363995; AuN: 461743.21787; Min: 991; Max: 858004" role="graphics-symbol" aria-roledescription="point" transform="translate(98.30579743686555,159.5868450551808)" d="M-5,-5h10v10h-10Z" fill="#f4a261" stroke="black" stroke-width="0.5" opacity="0.8"/><path aria-label="gc: 71.1125%; Total: 8.3M; phylogroup: P8; Sequence Quality: HQ; genome_id: GCF_016859185.1; Organism: s__Saccharopolyspora_D erythraea; Count: 1; N50: 8305652; AuN: 8305652; Min: 8305652; Max: 8305652" role="graphics-symbol" aria-roledescription="point" transform="translate(146.87337524581363,85.15054054288687)" d="M5,0A5,5,0,1,1,-5,0A5,5,0,1,1,5,0" fill="#2a9d8f" stroke="black" stroke-width="0.5" opacity="0.8"/><path aria-label="gc: 71.0667%; Total: 8.2M; phylogroup: P8; Sequence Quality: HQ; genome_id: GCF_018141105.1; Organism: s__Saccharopolyspora_D erythraea_A; Count: 1; N50: 8243897; AuN: 8243897; Min: 8243897; Max: 8243897" role="graphics-symbol" aria-roledescription="point" transform="translate(145.24078063011783,89.18766744058168)" d="M5,0A5,5,0,1,1,-5,0A5,5,0,1,1,5,0" fill="#2a9d8f" stroke="black" stroke-width="0.5" opacity="0.8"/><path aria-label="gc: 71.1839%; Total: 8.2M; phylogroup: P8; Sequence Quality: HQ; genome_id: GCF_022392385.1; Organism: s__Saccharopolyspora_D erythraea; Count: 2; N50: 5801759; AuN: 4806404.01657; Min: 2379324; Max: 5801759" role="graphics-symbol" aria-roledescription="point" transform="translate(149.42384662895248,93.29402464164718)" d="M5,0A5,5,0,1,1,-5,0A5,5,0,1,1,5,0" fill="#2a9d8f" stroke="black" stroke-width="0.5" opacity="0.8"/><path aria-label="gc: 71.1460%; Total: 8.2M; phylogroup: P8; Sequence Quality: HQ; genome_id: GCF_000062885.1; Organism: s__Saccharopolyspora_D erythraea; Count: 1; N50: 8212805; AuN: 8212805; Min: 8212805; Max: 8212805" role="graphics-symbol" aria-roledescription="point" transform="translate(148.07001731703457,91.22025345795883)" d="M5,0A5,5,0,1,1,-5,0A5,5,0,1,1,5,0" fill="#2a9d8f" stroke="black" stroke-width="0.5" opacity="0.8"/><path aria-label="gc: 71.1415%; Total: 8.2M; phylogroup: P8; Sequence Quality: HQ; genome_id: GCF_002564065.1; Organism: s__Saccharopolyspora_D erythraea; Count: 1; N50: 8230103; AuN: 8230103; Min: 8230103; Max: 8230103" role="graphics-symbol" aria-roledescription="point" transform="translate(147.9090975098194,90.08942646295723)" d="M5,0A5,5,0,1,1,-5,0A5,5,0,1,1,5,0" fill="#2a9d8f" stroke="black" stroke-width="0.5" opacity="0.8"/><path aria-label="gc: 70.7756%; Total: 6.3M; phylogroup: P5; Sequence Quality: MQ; genome_id: GCF_900116135.1; Organism: s__Saccharopolyspora flava; Count: 22; N50: 505605; AuN: 691690.790266; Min: 1350; Max: 1461917" role="graphics-symbol" aria-roledescription="point" transform="translate(134.8439122577591,216.83540294677638)" d="M-5,-5h10v10h-10Z" fill="#f4a261" stroke="black" stroke-width="0.5" opacity="0.8"/><path aria-label="gc: 71.1037%; Total: 6.8M; phylogroup: P7; Sequence Quality: HQ; genome_id: GCF_014203325.1; Organism: s__Saccharopolyspora_C gloriosae; Count: 1; N50: 6825909; AuN: 6825909; Min: 6825909; Max: 6825909" role="graphics-symbol" aria-roledescription="point" transform="translate(146.56026555793323,181.88619380133696)" d="M5,0A5,5,0,1,1,-5,0A5,5,0,1,1,5,0" fill="#e76f51" stroke="black" stroke-width="0.5" opacity="0.8"/><path aria-label="gc: 69.4800%; Total: 6.9M; phylogroup: P7; Sequence Quality: HQ; genome_id: GCF_022828475.1; Organism: s__; Count: 1; N50: 6878695; AuN: 6878695; Min: 6878695; Max: 6878695" role="graphics-symbol" aria-roledescription="point" transform="translate(88.57024167686282,178.43539985069788)" d="M5,0A5,5,0,1,1,-5,0A5,5,0,1,1,5,0" fill="#e76f51" stroke="black" stroke-width="0.5" opacity="0.8"/><path aria-label="gc: 72.6672%; Total: 6.3M; phylogroup: P7; Sequence Quality: HQ; genome_id: GCF_024734405.1; Organism: s__; Count: 1; N50: 6344421; AuN: 6344421; Min: 6344421; Max: 6344421" role="graphics-symbol" aria-roledescription="point" transform="translate(202.40050837015463,213.36264357410468)" d="M5,0A5,5,0,1,1,-5,0A5,5,0,1,1,5,0" fill="#e76f51" stroke="black" stroke-width="0.5" opacity="0.8"/><path aria-label="gc: 71.4030%; Total: 7.5M; phylogroup: P1; Sequence Quality: MQ; genome_id: GCF_008630535.1; Organism: s__Saccharopolyspora hirsuta; Count: 46; N50: 504440; AuN: 427311.536376; Min: 509; Max: 688257" role="graphics-symbol" aria-roledescription="point" transform="translate(157.2498250757905,134.58973716908173)" d="M-5,-5h10v10h-10Z" fill="#264653" stroke="black" stroke-width="0.5" opacity="0.8"/><path aria-label="gc: 72.4791%; Total: 5.8M; phylogroup: P1; Sequence Quality: HQ; genome_id: GCF_013410345.1; Organism: s__Saccharopolyspora hordei; Count: 1; N50: 5783988; AuN: 5783988; Min: 5783988; Max: 5783988" role="graphics-symbol" aria-roledescription="point" transform="translate(195.68371955721324,249.999986925344)" d="M5,0A5,5,0,1,1,-5,0A5,5,0,1,1,5,0" fill="#264653" stroke="black" stroke-width="0.5" opacity="0.8"/><path aria-label="gc: 70.9000%; Total: 7.8M; phylogroup: P1; Sequence Quality: MQ; genome_id: GCF_900112555.1; Organism: s__Saccharopolyspora jiangxiensis; Count: 28; N50: 406024; AuN: 749567.987641; Min: 1234; Max: 1963067" role="graphics-symbol" aria-roledescription="point" transform="translate(139.28423025899514,119.69384699368157)" d="M-5,-5h10v10h-10Z" fill="#264653" stroke="black" stroke-width="0.5" opacity="0.8"/><path aria-label="gc: 70.8955%; Total: 7.7M; phylogroup: P1; Sequence Quality: MQ; genome_id: GCF_900108315.1; Organism: s__Saccharopolyspora jiangxiensis; Count: 27; N50: 729242; AuN: 901391.389747; Min: 1135; Max: 1906593" role="graphics-symbol" aria-roledescription="point" transform="translate(139.12479404494218,121.86443600484115)" d="M-5,-5h10v10h-10Z" fill="#264653" stroke="black" stroke-width="0.5" opacity="0.8"/><path aria-label="gc: 67.7258%; Total: 8.5M; phylogroup: P4; Sequence Quality: HQ; genome_id: GCF_014203395.1; Organism: s__Saccharopolyspora phatthalungensis; Count: 6; N50: 5889697; AuN: 4605386.06803; Min: 23145; Max: 5889697" role="graphics-symbol" aria-roledescription="point" transform="translate(25.921695065463716,69.71702051392597)" d="M5,0A5,5,0,1,1,-5,0A5,5,0,1,1,5,0" fill="#808080" stroke="black" stroke-width="0.5" opacity="0.8"/><path aria-label="gc: 67.9250%; Total: 9.6M; phylogroup: P2; Sequence Quality: HQ; genome_id: GCF_014697215.1; Organism: s__Saccharopolyspora pogona; Count: 3; N50: 9436548; AuN: 9269514.83961; Min: 85530; Max: 9436548" role="graphics-symbol" aria-roledescription="point" transform="translate(33.03561578333696,0.000013074655913491995)" d="M5,0A5,5,0,1,1,-5,0A5,5,0,1,1,5,0" fill="#e9c46a" stroke="black" stroke-width="0.5" opacity="0.8"/><path aria-label="gc: 70.6330%; Total: 5.8M; phylogroup: P5; Sequence Quality: MQ; genome_id: GCF_003931915.1; Organism: s__Saccharopolyspora rhizosphaerae; Count: 35; N50: 345543; AuN: 406293.161787; Min: 209; Max: 768785" role="graphics-symbol" aria-roledescription="point" transform="translate(129.7484343523099,247.34387056467136)" d="M-5,-5h10v10h-10Z" fill="#f4a261" stroke="black" stroke-width="0.5" opacity="0.8"/><path aria-label="gc: 71.7058%; Total: 6.6M; phylogroup: P3; Sequence Quality: HQ; genome_id: GCF_025643595.1; Organism: s__; Count: 1; N50: 6562638; AuN: 6562638; Min: 6562638; Max: 6562638" role="graphics-symbol" aria-roledescription="point" transform="translate(168.06315430732937,199.09708256310532)" d="M5,0A5,5,0,1,1,-5,0A5,5,0,1,1,5,0" fill="#808080" stroke="black" stroke-width="0.5" opacity="0.8"/><path aria-label="gc: 68.1045%; Total: 8.0M; phylogroup: P2; Sequence Quality: HQ; genome_id: GCF_012277335.1; Organism: s__Saccharopolyspora pogona; Count: 1; N50: 8045912; AuN: 8045912; Min: 8045912; Max: 8045912" role="graphics-symbol" aria-roledescription="point" transform="translate(39.44681117921363,102.13059625347299)" d="M5,0A5,5,0,1,1,-5,0A5,5,0,1,1,5,0" fill="#e9c46a" stroke="black" stroke-width="0.5" opacity="0.8"/><path aria-label="gc: 70.2927%; Total: 6.4M; phylogroup: P6; Sequence Quality: MQ; genome_id: GCF_016526145.1; Organism: s__Saccharopolyspora_C sp016526145; Count: 34; N50: 454807; AuN: 489088.830181; Min: 1107; Max: 979558" role="graphics-symbol" aria-roledescription="point" transform="translate(117.59758601129418,209.91420306154052)" d="M-5,-5h10v10h-10Z" fill="#808080" stroke="black" stroke-width="0.5" opacity="0.8"/><path aria-label="gc: 67.9671%; Total: 8.9M; phylogroup: P2; Sequence Quality: HQ; genome_id: GCF_014490055.1; Organism: s__Saccharopolyspora spinosa; Count: 1; N50: 8876435; AuN: 8876435; Min: 8876435; Max: 8876435" role="graphics-symbol" aria-roledescription="point" transform="translate(34.5378964479706,47.83658374510652)" d="M5,0A5,5,0,1,1,-5,0A5,5,0,1,1,5,0" fill="#e9c46a" stroke="black" stroke-width="0.5" opacity="0.8"/><path aria-label="gc: 67.9495%; Total: 9.0M; phylogroup: P2; Sequence Quality: HQ; genome_id: GCF_002846475.1; Organism: s__Saccharopolyspora spinosa; Count: 1; N50: 9020646; AuN: 9020646; Min: 9020646; Max: 9020646" role="graphics-symbol" aria-roledescription="point" transform="translate(33.910772180681015,38.40903768335502)" d="M5,0A5,5,0,1,1,-5,0A5,5,0,1,1,5,0" fill="#e9c46a" stroke="black" stroke-width="0.5" opacity="0.8"/><path aria-label="gc: 68.0566%; Total: 8.6M; phylogroup: P2; Sequence Quality: MQ; genome_id: GCF_000194155.1; Organism: s__Saccharopolyspora spinosa; Count: 22; N50: 2392754; AuN: 2522450.8569; Min: 1081; Max: 3851573" role="graphics-symbol" aria-roledescription="point" transform="translate(37.73638385570015,67.08999526279061)" d="M-5,-5h10v10h-10Z" fill="#e9c46a" stroke="black" stroke-width="0.5" opacity="0.8"/></g><g class="mark-group role-legend" role="graphics-symbol" aria-roledescription="legend" aria-label="Symbol legend titled 'Sequence Quality' for shape with 2 values: HQ, MQ"><g transform="translate(0,-48)"><path class="background" aria-hidden="true" d="M0,0h101v30h-101Z" pointer-events="none"/><g><g class="mark-group role-legend-entry"><g transform="translate(0,17)"><path class="background" aria-hidden="true" d="M0,0h0v0h0Z" pointer-events="none"/><g><g class="mark-group role-scope" role="graphics-object" aria-roledescription="group mark container"><g transform="translate(0,0.25)"><path class="background" aria-hidden="true" d="M0,0h31v12.5h-31Z" pointer-events="none" opacity="1"/><g><g class="mark-symbol role-legend-symbol" pointer-events="none"><path transform="translate(6,6)" d="M5,0A5,5,0,1,1,-5,0A5,5,0,1,1,5,0" fill="black" fill-opacity="0.8" stroke="black" stroke-width="1.5" opacity="0.8"/></g><g class="mark-text role-legend-label" pointer-events="none"><text text-anchor="start" transform="translate(16,9)" font-family="sans-serif" font-size="10px" fill="#000" opacity="1">HQ</text></g></g><path class="foreground" aria-hidden="true" d="" pointer-events="none" display="none"/></g><g transform="translate(42,0.25)"><path class="background" aria-hidden="true" d="M0,0h32.1083984375v12.5h-32.1083984375Z" pointer-events="none" opacity="1"/><g><g class="mark-symbol role-legend-symbol" pointer-events="none"><path transform="translate(6,6)" d="M-5,-5h10v10h-10Z" fill="black" fill-opacity="0.8" stroke="black" stroke-width="1.5" opacity="0.8"/></g><g class="mark-text role-legend-label" pointer-events="none"><text text-anchor="start" transform="translate(16,9)" font-family="sans-serif" font-size="10px" fill="#000" opacity="1">MQ</text></g></g><path class="foreground" aria-hidden="true" d="" pointer-events="none" display="none"/></g></g></g><path class="foreground" aria-hidden="true" d="" pointer-events="none" display="none"/></g></g><g class="mark-text role-legend-title" pointer-events="none"><text text-anchor="start" transform="translate(0,9)" font-family="sans-serif" font-size="12px" font-weight="bold" fill="#000" opacity="1">Sequence Quality</text></g></g><path class="foreground" aria-hidden="true" d="" pointer-events="none" display="none"/></g></g></g><path class="foreground" aria-hidden="true" d="" display="none"/></g></g></g></svg>