<?xml version='1.0' encoding='ASCII' standalone='yes'?>
<svg xmlns="http://www.w3.org/2000/svg" xmlns:xlink="http://www.w3.org/1999/xlink" version="1.1" width="650.0px" viewBox="0 0 650.0 650.0" height="650.0px">
  <g>
    <g>
      <g class="svglite" transform="translate(0, 0) scale(1.2 1.2) "><defs>
  <style type="text/css">
    .svglite line, .svglite polyline, .svglite polygon, .svglite path, .svglite rect, .svglite circle {
      fill: none;
      stroke: #000000;
      stroke-linecap: round;
      stroke-linejoin: round;
      stroke-miterlimit: 10.00;
    }
    .svglite text {
      white-space: pre;
    }
  </style>
</defs>
<rect width="100%" height="100%" style="stroke: none; fill: none;"/>
<defs>
  <clipPath id="cpMC4wMHw0ODAuMDB8MC4wMHwzMzYuMDA=">
    <rect x="0.00" y="0.00" width="480.00" height="336.00"/>
  </clipPath>
</defs>
<g clip-path="url(#cpMC4wMHw0ODAuMDB8MC4wMHwzMzYuMDA=)">
<rect x="0.000000000000064" y="0.00" width="480.00" height="336.00" style="stroke-width: 1.07; stroke: #FFFFFF; fill: #FFFFFF;"/>
</g>
<defs>
  <clipPath id="cpOC4yMnwxMjMuNDJ8MjMuMjV8MzI3Ljc4">
    <rect x="8.22" y="23.25" width="115.21" height="304.53"/>
  </clipPath>
</defs>
<g clip-path="url(#cpOC4yMnwxMjMuNDJ8MjMuMjV8MzI3Ljc4)">
<rect x="8.22" y="23.25" width="115.21" height="304.53" style="stroke-width: 1.07; stroke: #FFFFFF; fill: #FFFFFF;"/>
<line x1="32.47" y1="237.09" x2="32.47" y2="237.09" style="stroke-width: 1.07;"/>
<line x1="43.05" y1="293.07" x2="47.85" y2="293.07" style="stroke-width: 1.07;"/>
<line x1="43.05" y1="281.88" x2="47.04" y2="281.88" style="stroke-width: 1.07;"/>
<line x1="38.00" y1="304.27" x2="46.09" y2="304.27" style="stroke-width: 1.07;"/>
<line x1="29.82" y1="315.47" x2="46.18" y2="315.47" style="stroke-width: 1.07;"/>
<line x1="38.96" y1="113.94" x2="38.96" y2="113.94" style="stroke-width: 1.07;"/>
<line x1="38.96" y1="102.74" x2="38.96" y2="102.74" style="stroke-width: 1.07;"/>
<line x1="38.96" y1="125.13" x2="39.01" y2="125.13" style="stroke-width: 1.07;"/>
<line x1="37.48" y1="147.52" x2="38.57" y2="147.52" style="stroke-width: 1.07;"/>
<line x1="37.48" y1="136.33" x2="38.68" y2="136.33" style="stroke-width: 1.07;"/>
<line x1="31.00" y1="158.72" x2="38.73" y2="158.72" style="stroke-width: 1.07;"/>
<line x1="31.39" y1="91.54" x2="40.87" y2="91.54" style="stroke-width: 1.07;"/>
<line x1="40.52" y1="69.15" x2="40.52" y2="69.15" style="stroke-width: 1.07;"/>
<line x1="40.52" y1="57.95" x2="40.52" y2="57.95" style="stroke-width: 1.07;"/>
<line x1="40.28" y1="46.76" x2="40.28" y2="46.76" style="stroke-width: 1.07;"/>
<line x1="40.28" y1="35.56" x2="40.30" y2="35.56" style="stroke-width: 1.07;"/>
<line x1="33.54" y1="80.35" x2="38.32" y2="80.35" style="stroke-width: 1.07;"/>
<line x1="40.66" y1="181.11" x2="45.66" y2="181.11" style="stroke-width: 1.07;"/>
<line x1="40.66" y1="169.92" x2="47.85" y2="169.92" style="stroke-width: 1.07;"/>
<line x1="37.97" y1="192.31" x2="43.99" y2="192.31" style="stroke-width: 1.07;"/>
<line x1="35.85" y1="203.50" x2="42.91" y2="203.50" style="stroke-width: 1.07;"/>
<line x1="17.14" y1="214.70" x2="32.02" y2="214.70" style="stroke-width: 1.07;"/>
<line x1="30.62" y1="270.68" x2="33.34" y2="270.68" style="stroke-width: 1.07;"/>
<line x1="32.47" y1="259.48" x2="32.47" y2="259.48" style="stroke-width: 1.07;"/>
<line x1="32.47" y1="248.29" x2="32.47" y2="248.29" style="stroke-width: 1.07;"/>
<line x1="32.47" y1="225.90" x2="32.47" y2="225.90" style="stroke-width: 1.07;"/>
<line x1="13.46" y1="233.29" x2="13.46" y2="233.29" style="stroke-width: 1.07;"/>
<line x1="32.47" y1="231.49" x2="32.47" y2="231.49" style="stroke-width: 1.07;"/>
<line x1="32.47" y1="239.89" x2="32.47" y2="239.89" style="stroke-width: 1.07;"/>
<line x1="30.62" y1="249.69" x2="32.47" y2="249.69" style="stroke-width: 1.07;"/>
<line x1="16.67" y1="260.18" x2="30.62" y2="260.18" style="stroke-width: 1.07;"/>
<line x1="13.46" y1="282.93" x2="16.67" y2="282.93" style="stroke-width: 1.07;"/>
<line x1="16.67" y1="305.67" x2="29.82" y2="305.67" style="stroke-width: 1.07;"/>
<line x1="29.82" y1="295.87" x2="38.00" y2="295.87" style="stroke-width: 1.07;"/>
<line x1="38.00" y1="287.47" x2="43.05" y2="287.47" style="stroke-width: 1.07;"/>
<line x1="13.46" y1="183.65" x2="17.14" y2="183.65" style="stroke-width: 1.07;"/>
<line x1="17.14" y1="152.60" x2="22.12" y2="152.60" style="stroke-width: 1.07;"/>
<line x1="22.12" y1="111.49" x2="26.44" y2="111.49" style="stroke-width: 1.07;"/>
<line x1="26.44" y1="144.02" x2="31.00" y2="144.02" style="stroke-width: 1.07;"/>
<line x1="31.00" y1="129.33" x2="35.82" y2="129.33" style="stroke-width: 1.07;"/>
<line x1="35.82" y1="116.73" x2="38.96" y2="116.73" style="stroke-width: 1.07;"/>
<line x1="38.96" y1="108.34" x2="38.96" y2="108.34" style="stroke-width: 1.07;"/>
<line x1="35.82" y1="141.93" x2="37.48" y2="141.93" style="stroke-width: 1.07;"/>
<line x1="26.44" y1="78.95" x2="31.39" y2="78.95" style="stroke-width: 1.07;"/>
<line x1="31.39" y1="66.35" x2="33.54" y2="66.35" style="stroke-width: 1.07;"/>
<line x1="33.54" y1="52.36" x2="39.38" y2="52.36" style="stroke-width: 1.07;"/>
<line x1="39.38" y1="63.55" x2="40.52" y2="63.55" style="stroke-width: 1.07;"/>
<line x1="39.38" y1="41.16" x2="40.28" y2="41.16" style="stroke-width: 1.07;"/>
<line x1="22.12" y1="193.71" x2="35.85" y2="193.71" style="stroke-width: 1.07;"/>
<line x1="35.85" y1="183.91" x2="37.97" y2="183.91" style="stroke-width: 1.07;"/>
<line x1="37.97" y1="175.51" x2="40.66" y2="175.51" style="stroke-width: 1.07;"/>
<line x1="32.47" y1="231.49" x2="32.47" y2="237.09" style="stroke-width: 1.07;"/>
<line x1="43.05" y1="287.47" x2="43.05" y2="293.07" style="stroke-width: 1.07;"/>
<line x1="43.05" y1="287.47" x2="43.05" y2="281.88" style="stroke-width: 1.07;"/>
<line x1="38.00" y1="295.87" x2="38.00" y2="304.27" style="stroke-width: 1.07;"/>
<line x1="29.82" y1="305.67" x2="29.82" y2="315.47" style="stroke-width: 1.07;"/>
<line x1="38.96" y1="108.34" x2="38.96" y2="113.94" style="stroke-width: 1.07;"/>
<line x1="38.96" y1="108.34" x2="38.96" y2="102.74" style="stroke-width: 1.07;"/>
<line x1="38.96" y1="116.73" x2="38.96" y2="125.13" style="stroke-width: 1.07;"/>
<line x1="37.48" y1="141.93" x2="37.48" y2="147.52" style="stroke-width: 1.07;"/>
<line x1="37.48" y1="141.93" x2="37.48" y2="136.33" style="stroke-width: 1.07;"/>
<line x1="31.00" y1="144.02" x2="31.00" y2="158.72" style="stroke-width: 1.07;"/>
<line x1="31.39" y1="78.95" x2="31.39" y2="91.54" style="stroke-width: 1.07;"/>
<line x1="40.52" y1="63.55" x2="40.52" y2="69.15" style="stroke-width: 1.07;"/>
<line x1="40.52" y1="63.55" x2="40.52" y2="57.95" style="stroke-width: 1.07;"/>
<line x1="40.28" y1="41.16" x2="40.28" y2="46.76" style="stroke-width: 1.07;"/>
<line x1="40.28" y1="41.16" x2="40.28" y2="35.56" style="stroke-width: 1.07;"/>
<line x1="33.54" y1="66.35" x2="33.54" y2="80.35" style="stroke-width: 1.07;"/>
<line x1="40.66" y1="175.51" x2="40.66" y2="181.11" style="stroke-width: 1.07;"/>
<line x1="40.66" y1="175.51" x2="40.66" y2="169.92" style="stroke-width: 1.07;"/>
<line x1="37.97" y1="183.91" x2="37.97" y2="192.31" style="stroke-width: 1.07;"/>
<line x1="35.85" y1="193.71" x2="35.85" y2="203.50" style="stroke-width: 1.07;"/>
<line x1="17.14" y1="183.65" x2="17.14" y2="214.70" style="stroke-width: 1.07;"/>
<line x1="30.62" y1="260.18" x2="30.62" y2="270.68" style="stroke-width: 1.07;"/>
<line x1="32.47" y1="249.69" x2="32.47" y2="259.48" style="stroke-width: 1.07;"/>
<line x1="32.47" y1="239.89" x2="32.47" y2="248.29" style="stroke-width: 1.07;"/>
<line x1="32.47" y1="231.49" x2="32.47" y2="225.90" style="stroke-width: 1.07;"/>
<line x1="13.46" y1="233.29" x2="13.46" y2="233.29" style="stroke-width: 1.07;"/>
<line x1="32.47" y1="239.89" x2="32.47" y2="231.49" style="stroke-width: 1.07;"/>
<line x1="32.47" y1="249.69" x2="32.47" y2="239.89" style="stroke-width: 1.07;"/>
<line x1="30.62" y1="260.18" x2="30.62" y2="249.69" style="stroke-width: 1.07;"/>
<line x1="16.67" y1="282.93" x2="16.67" y2="260.18" style="stroke-width: 1.07;"/>
<line x1="13.46" y1="233.29" x2="13.46" y2="282.93" style="stroke-width: 1.07;"/>
<line x1="16.67" y1="282.93" x2="16.67" y2="305.67" style="stroke-width: 1.07;"/>
<line x1="29.82" y1="305.67" x2="29.82" y2="295.87" style="stroke-width: 1.07;"/>
<line x1="38.00" y1="295.87" x2="38.00" y2="287.47" style="stroke-width: 1.07;"/>
<line x1="13.46" y1="233.29" x2="13.46" y2="183.65" style="stroke-width: 1.07;"/>
<line x1="17.14" y1="183.65" x2="17.14" y2="152.60" style="stroke-width: 1.07;"/>
<line x1="22.12" y1="152.60" x2="22.12" y2="111.49" style="stroke-width: 1.07;"/>
<line x1="26.44" y1="111.49" x2="26.44" y2="144.02" style="stroke-width: 1.07;"/>
<line x1="31.00" y1="144.02" x2="31.00" y2="129.33" style="stroke-width: 1.07;"/>
<line x1="35.82" y1="129.33" x2="35.82" y2="116.73" style="stroke-width: 1.07;"/>
<line x1="38.96" y1="116.73" x2="38.96" y2="108.34" style="stroke-width: 1.07;"/>
<line x1="35.82" y1="129.33" x2="35.82" y2="141.93" style="stroke-width: 1.07;"/>
<line x1="26.44" y1="111.49" x2="26.44" y2="78.95" style="stroke-width: 1.07;"/>
<line x1="31.39" y1="78.95" x2="31.39" y2="66.35" style="stroke-width: 1.07;"/>
<line x1="33.54" y1="66.35" x2="33.54" y2="52.36" style="stroke-width: 1.07;"/>
<line x1="39.38" y1="52.36" x2="39.38" y2="63.55" style="stroke-width: 1.07;"/>
<line x1="39.38" y1="52.36" x2="39.38" y2="41.16" style="stroke-width: 1.07;"/>
<line x1="22.12" y1="152.60" x2="22.12" y2="193.71" style="stroke-width: 1.07;"/>
<line x1="35.85" y1="193.71" x2="35.85" y2="183.91" style="stroke-width: 1.07;"/>
<line x1="37.97" y1="183.91" x2="37.97" y2="175.51" style="stroke-width: 1.07;"/>
<text x="46.70" y="94.34" style="font-size: 7.68px; font-family: &quot;DejaVu Sans&quot;;" textLength="70.81px" lengthAdjust="spacingAndGlyphs">GCF_013410345.1</text>
<text x="46.35" y="71.95" style="font-size: 7.68px; font-family: &quot;DejaVu Sans&quot;;" textLength="70.81px" lengthAdjust="spacingAndGlyphs">GCF_003635025.1</text>
<text x="46.35" y="60.75" style="font-size: 7.68px; font-family: &quot;DejaVu Sans&quot;;" textLength="70.81px" lengthAdjust="spacingAndGlyphs">GCF_900114905.1</text>
<text x="46.11" y="49.56" style="font-size: 7.68px; font-family: &quot;DejaVu Sans&quot;;" textLength="70.81px" lengthAdjust="spacingAndGlyphs">GCF_900112555.1</text>
<text x="46.14" y="38.36" style="font-size: 7.68px; font-family: &quot;DejaVu Sans&quot;;" textLength="70.81px" lengthAdjust="spacingAndGlyphs">GCF_900108315.1</text>
<text x="44.16" y="83.14" style="font-size: 7.68px; font-family: &quot;DejaVu Sans&quot;;" textLength="70.81px" lengthAdjust="spacingAndGlyphs">GCF_008630535.1</text>
<text x="44.80" y="116.73" style="font-size: 7.68px; font-family: &quot;DejaVu Sans&quot;;" textLength="70.81px" lengthAdjust="spacingAndGlyphs">GCF_002846475.1</text>
<text x="44.80" y="105.54" style="font-size: 7.68px; font-family: &quot;DejaVu Sans&quot;;" textLength="70.81px" lengthAdjust="spacingAndGlyphs">GCF_000194155.1</text>
<text x="44.85" y="127.93" style="font-size: 7.68px; font-family: &quot;DejaVu Sans&quot;;" textLength="70.81px" lengthAdjust="spacingAndGlyphs">GCF_014490055.1</text>
<text x="44.40" y="150.32" style="font-size: 7.68px; font-family: &quot;DejaVu Sans&quot;;" textLength="70.81px" lengthAdjust="spacingAndGlyphs">GCF_014697215.1</text>
<text x="44.52" y="139.12" style="font-size: 7.68px; font-family: &quot;DejaVu Sans&quot;;" textLength="70.81px" lengthAdjust="spacingAndGlyphs">GCF_012277335.1</text>
<text x="37.86" y="217.50" style="font-size: 7.68px; font-family: &quot;DejaVu Sans&quot;;" textLength="70.81px" lengthAdjust="spacingAndGlyphs">GCF_025643595.1</text>
<text x="44.56" y="161.52" style="font-size: 7.68px; font-family: &quot;DejaVu Sans&quot;;" textLength="70.81px" lengthAdjust="spacingAndGlyphs">GCF_014203395.1</text>
<text x="51.50" y="183.91" style="font-size: 7.68px; font-family: &quot;DejaVu Sans&quot;;" textLength="70.81px" lengthAdjust="spacingAndGlyphs">GCF_018070075.1</text>
<text x="53.69" y="172.71" style="font-size: 7.68px; font-family: &quot;DejaVu Sans&quot;;" textLength="70.81px" lengthAdjust="spacingAndGlyphs">GCF_007829955.1</text>
<text x="49.82" y="195.11" style="font-size: 7.68px; font-family: &quot;DejaVu Sans&quot;;" textLength="70.81px" lengthAdjust="spacingAndGlyphs">GCF_900116135.1</text>
<text x="48.75" y="206.30" style="font-size: 7.68px; font-family: &quot;DejaVu Sans&quot;;" textLength="70.81px" lengthAdjust="spacingAndGlyphs">GCF_003931915.1</text>
<text x="52.02" y="318.26" style="font-size: 7.68px; font-family: &quot;DejaVu Sans&quot;;" textLength="70.81px" lengthAdjust="spacingAndGlyphs">GCF_016526145.1</text>
<text x="53.69" y="295.87" style="font-size: 7.68px; font-family: &quot;DejaVu Sans&quot;;" textLength="70.81px" lengthAdjust="spacingAndGlyphs">GCF_022828475.1</text>
<text x="52.87" y="284.67" style="font-size: 7.68px; font-family: &quot;DejaVu Sans&quot;;" textLength="70.81px" lengthAdjust="spacingAndGlyphs">GCF_014203325.1</text>
<text x="51.92" y="307.07" style="font-size: 7.68px; font-family: &quot;DejaVu Sans&quot;;" textLength="70.81px" lengthAdjust="spacingAndGlyphs">GCF_024734405.1</text>
<text x="38.31" y="239.89" style="font-size: 7.68px; font-family: &quot;DejaVu Sans&quot;;" textLength="70.81px" lengthAdjust="spacingAndGlyphs">GCF_002564065.1</text>
<text x="39.18" y="273.48" style="font-size: 7.68px; font-family: &quot;DejaVu Sans&quot;;" textLength="70.81px" lengthAdjust="spacingAndGlyphs">GCF_018141105.1</text>
<text x="38.31" y="262.28" style="font-size: 7.68px; font-family: &quot;DejaVu Sans&quot;;" textLength="70.81px" lengthAdjust="spacingAndGlyphs">GCF_016859185.1</text>
<text x="38.31" y="251.09" style="font-size: 7.68px; font-family: &quot;DejaVu Sans&quot;;" textLength="70.81px" lengthAdjust="spacingAndGlyphs">GCF_022392385.1</text>
<text x="38.31" y="228.69" style="font-size: 7.68px; font-family: &quot;DejaVu Sans&quot;;" textLength="70.81px" lengthAdjust="spacingAndGlyphs">GCF_000062885.1</text>
<circle cx="40.87" cy="91.54" r="1.78" style="stroke-width: 1.42; stroke: #264653; stroke-opacity: 0.80; fill: #264653; fill-opacity: 0.80;"/>
<circle cx="40.52" cy="69.15" r="1.78" style="stroke-width: 1.42; stroke: #264653; stroke-opacity: 0.80; fill: #264653; fill-opacity: 0.80;"/>
<circle cx="40.52" cy="57.95" r="1.78" style="stroke-width: 1.42; stroke: #264653; stroke-opacity: 0.80; fill: #264653; fill-opacity: 0.80;"/>
<circle cx="40.28" cy="46.76" r="1.78" style="stroke-width: 1.42; stroke: #264653; stroke-opacity: 0.80; fill: #264653; fill-opacity: 0.80;"/>
<circle cx="40.30" cy="35.56" r="1.78" style="stroke-width: 1.42; stroke: #264653; stroke-opacity: 0.80; fill: #264653; fill-opacity: 0.80;"/>
<circle cx="38.32" cy="80.35" r="1.78" style="stroke-width: 1.42; stroke: #264653; stroke-opacity: 0.80; fill: #264653; fill-opacity: 0.80;"/>
<circle cx="38.96" cy="113.94" r="1.78" style="stroke-width: 1.42; stroke: #E9C46A; stroke-opacity: 0.80; fill: #E9C46A; fill-opacity: 0.80;"/>
<circle cx="38.96" cy="102.74" r="1.78" style="stroke-width: 1.42; stroke: #E9C46A; stroke-opacity: 0.80; fill: #E9C46A; fill-opacity: 0.80;"/>
<circle cx="39.01" cy="125.13" r="1.78" style="stroke-width: 1.42; stroke: #E9C46A; stroke-opacity: 0.80; fill: #E9C46A; fill-opacity: 0.80;"/>
<circle cx="38.57" cy="147.52" r="1.78" style="stroke-width: 1.42; stroke: #E9C46A; stroke-opacity: 0.80; fill: #E9C46A; fill-opacity: 0.80;"/>
<circle cx="38.68" cy="136.33" r="1.78" style="stroke-width: 1.42; stroke: #E9C46A; stroke-opacity: 0.80; fill: #E9C46A; fill-opacity: 0.80;"/>
<circle cx="32.02" cy="214.70" r="1.78" style="stroke-width: 1.42; stroke: #808080; stroke-opacity: 0.80; fill: #808080; fill-opacity: 0.80;"/>
<circle cx="38.73" cy="158.72" r="1.78" style="stroke-width: 1.42; stroke: #808080; stroke-opacity: 0.80; fill: #808080; fill-opacity: 0.80;"/>
<circle cx="45.66" cy="181.11" r="1.78" style="stroke-width: 1.42; stroke: #F4A261; stroke-opacity: 0.80; fill: #F4A261; fill-opacity: 0.80;"/>
<circle cx="47.85" cy="169.92" r="1.78" style="stroke-width: 1.42; stroke: #F4A261; stroke-opacity: 0.80; fill: #F4A261; fill-opacity: 0.80;"/>
<circle cx="43.99" cy="192.31" r="1.78" style="stroke-width: 1.42; stroke: #F4A261; stroke-opacity: 0.80; fill: #F4A261; fill-opacity: 0.80;"/>
<circle cx="42.91" cy="203.50" r="1.78" style="stroke-width: 1.42; stroke: #F4A261; stroke-opacity: 0.80; fill: #F4A261; fill-opacity: 0.80;"/>
<circle cx="46.18" cy="315.47" r="1.78" style="stroke-width: 1.42; stroke: #808080; stroke-opacity: 0.80; fill: #808080; fill-opacity: 0.80;"/>
<circle cx="47.85" cy="293.07" r="1.78" style="stroke-width: 1.42; stroke: #E76F51; stroke-opacity: 0.80; fill: #E76F51; fill-opacity: 0.80;"/>
<circle cx="47.04" cy="281.88" r="1.78" style="stroke-width: 1.42; stroke: #E76F51; stroke-opacity: 0.80; fill: #E76F51; fill-opacity: 0.80;"/>
<circle cx="46.09" cy="304.27" r="1.78" style="stroke-width: 1.42; stroke: #E76F51; stroke-opacity: 0.80; fill: #E76F51; fill-opacity: 0.80;"/>
<circle cx="32.47" cy="237.09" r="1.78" style="stroke-width: 1.42; stroke: #2A9D8F; stroke-opacity: 0.80; fill: #2A9D8F; fill-opacity: 0.80;"/>
<circle cx="33.34" cy="270.68" r="1.78" style="stroke-width: 1.42; stroke: #2A9D8F; stroke-opacity: 0.80; fill: #2A9D8F; fill-opacity: 0.80;"/>
<circle cx="32.47" cy="259.48" r="1.78" style="stroke-width: 1.42; stroke: #2A9D8F; stroke-opacity: 0.80; fill: #2A9D8F; fill-opacity: 0.80;"/>
<circle cx="32.47" cy="248.29" r="1.78" style="stroke-width: 1.42; stroke: #2A9D8F; stroke-opacity: 0.80; fill: #2A9D8F; fill-opacity: 0.80;"/>
<circle cx="32.47" cy="225.90" r="1.78" style="stroke-width: 1.42; stroke: #2A9D8F; stroke-opacity: 0.80; fill: #2A9D8F; fill-opacity: 0.80;"/>
</g>
<g clip-path="url(#cpMC4wMHw0ODAuMDB8MC4wMHwzMzYuMDA=)">
</g>
<defs>
  <clipPath id="cpMTI4LjkwfDQ3NC41MnwyMy4yNXwzMjcuNzg=">
    <rect x="128.90" y="23.25" width="345.62" height="304.53"/>
  </clipPath>
</defs>
<g clip-path="url(#cpMTI4LjkwfDQ3NC41MnwyMy4yNXwzMjcuNzg=)">
<rect x="128.90" y="23.25" width="345.62" height="304.53" style="stroke-width: 1.07; stroke: #FFFFFF; fill: #FFFFFF;"/>
<rect x="246.07" y="309.87" width="11.20" height="11.20" style="stroke-width: 2.13; stroke: #FFFFFF; stroke-linecap: butt; stroke-linejoin: miter; fill: #F8766D;"/>
<rect x="369.24" y="309.87" width="11.20" height="11.20" style="stroke-width: 2.13; stroke: #FFFFFF; stroke-linecap: butt; stroke-linejoin: miter; fill: #00BF7D;"/>
<rect x="201.28" y="309.87" width="11.20" height="11.20" style="stroke-width: 2.13; stroke: #FFFFFF; stroke-linecap: butt; stroke-linejoin: miter; fill: #F8766D;"/>
<rect x="279.66" y="298.67" width="11.20" height="11.20" style="stroke-width: 2.13; stroke: #FFFFFF; stroke-linecap: butt; stroke-linejoin: miter; fill: #A3A500;"/>
<rect x="369.24" y="298.67" width="11.20" height="11.20" style="stroke-width: 2.13; stroke: #FFFFFF; stroke-linecap: butt; stroke-linejoin: miter; fill: #00BF7D;"/>
<rect x="279.66" y="287.47" width="11.20" height="11.20" style="stroke-width: 2.13; stroke: #FFFFFF; stroke-linecap: butt; stroke-linejoin: miter; fill: #A3A500;"/>
<rect x="369.24" y="287.47" width="11.20" height="11.20" style="stroke-width: 2.13; stroke: #FFFFFF; stroke-linecap: butt; stroke-linejoin: miter; fill: #00BF7D;"/>
<rect x="447.61" y="276.28" width="11.20" height="11.20" style="stroke-width: 2.13; stroke: #FFFFFF; stroke-linecap: butt; stroke-linejoin: miter; fill: #E76BF3;"/>
<rect x="279.66" y="276.28" width="11.20" height="11.20" style="stroke-width: 2.13; stroke: #FFFFFF; stroke-linecap: butt; stroke-linejoin: miter; fill: #A3A500;"/>
<rect x="369.24" y="276.28" width="11.20" height="11.20" style="stroke-width: 2.13; stroke: #FFFFFF; stroke-linecap: butt; stroke-linejoin: miter; fill: #00BF7D;"/>
<rect x="425.22" y="265.08" width="11.20" height="11.20" style="stroke-width: 2.13; stroke: #FFFFFF; stroke-linecap: butt; stroke-linejoin: miter; fill: #00B0F6;"/>
<rect x="290.86" y="265.08" width="11.20" height="11.20" style="stroke-width: 2.13; stroke: #FFFFFF; stroke-linecap: butt; stroke-linejoin: miter; fill: #A3A500;"/>
<rect x="358.04" y="265.08" width="11.20" height="11.20" style="stroke-width: 2.13; stroke: #FFFFFF; stroke-linecap: butt; stroke-linejoin: miter; fill: #00BF7D;"/>
<rect x="436.42" y="265.08" width="11.20" height="11.20" style="stroke-width: 2.13; stroke: #FFFFFF; stroke-linecap: butt; stroke-linejoin: miter; fill: #00B0F6;"/>
<rect x="302.06" y="253.89" width="11.20" height="11.20" style="stroke-width: 2.13; stroke: #FFFFFF; stroke-linecap: butt; stroke-linejoin: miter; fill: #A3A500;"/>
<rect x="436.42" y="253.89" width="11.20" height="11.20" style="stroke-width: 2.13; stroke: #FFFFFF; stroke-linecap: butt; stroke-linejoin: miter; fill: #00B0F6;"/>
<rect x="425.22" y="253.89" width="11.20" height="11.20" style="stroke-width: 2.13; stroke: #FFFFFF; stroke-linecap: butt; stroke-linejoin: miter; fill: #00B0F6;"/>
<rect x="358.04" y="253.89" width="11.20" height="11.20" style="stroke-width: 2.13; stroke: #FFFFFF; stroke-linecap: butt; stroke-linejoin: miter; fill: #00BF7D;"/>
<rect x="425.22" y="242.69" width="11.20" height="11.20" style="stroke-width: 2.13; stroke: #FFFFFF; stroke-linecap: butt; stroke-linejoin: miter; fill: #00B0F6;"/>
<rect x="358.04" y="242.69" width="11.20" height="11.20" style="stroke-width: 2.13; stroke: #FFFFFF; stroke-linecap: butt; stroke-linejoin: miter; fill: #00BF7D;"/>
<rect x="302.06" y="242.69" width="11.20" height="11.20" style="stroke-width: 2.13; stroke: #FFFFFF; stroke-linecap: butt; stroke-linejoin: miter; fill: #A3A500;"/>
<rect x="436.42" y="242.69" width="11.20" height="11.20" style="stroke-width: 2.13; stroke: #FFFFFF; stroke-linecap: butt; stroke-linejoin: miter; fill: #00B0F6;"/>
<rect x="302.06" y="231.49" width="11.20" height="11.20" style="stroke-width: 2.13; stroke: #FFFFFF; stroke-linecap: butt; stroke-linejoin: miter; fill: #A3A500;"/>
<rect x="425.22" y="231.49" width="11.20" height="11.20" style="stroke-width: 2.13; stroke: #FFFFFF; stroke-linecap: butt; stroke-linejoin: miter; fill: #00B0F6;"/>
<rect x="436.42" y="231.49" width="11.20" height="11.20" style="stroke-width: 2.13; stroke: #FFFFFF; stroke-linecap: butt; stroke-linejoin: miter; fill: #00B0F6;"/>
<rect x="358.04" y="231.49" width="11.20" height="11.20" style="stroke-width: 2.13; stroke: #FFFFFF; stroke-linecap: butt; stroke-linejoin: miter; fill: #00BF7D;"/>
<rect x="358.04" y="220.30" width="11.20" height="11.20" style="stroke-width: 2.13; stroke: #FFFFFF; stroke-linecap: butt; stroke-linejoin: miter; fill: #00BF7D;"/>
<rect x="302.06" y="220.30" width="11.20" height="11.20" style="stroke-width: 2.13; stroke: #FFFFFF; stroke-linecap: butt; stroke-linejoin: miter; fill: #A3A500;"/>
<rect x="436.42" y="220.30" width="11.20" height="11.20" style="stroke-width: 2.13; stroke: #FFFFFF; stroke-linecap: butt; stroke-linejoin: miter; fill: #00B0F6;"/>
<rect x="425.22" y="220.30" width="11.20" height="11.20" style="stroke-width: 2.13; stroke: #FFFFFF; stroke-linecap: butt; stroke-linejoin: miter; fill: #00B0F6;"/>
<rect x="156.50" y="209.10" width="11.20" height="11.20" style="stroke-width: 2.13; stroke: #FFFFFF; stroke-linecap: butt; stroke-linejoin: miter; fill: #F8766D;"/>
<rect x="223.68" y="209.10" width="11.20" height="11.20" style="stroke-width: 2.13; stroke: #FFFFFF; stroke-linecap: butt; stroke-linejoin: miter; fill: #F8766D;"/>
<rect x="380.43" y="186.71" width="11.20" height="11.20" style="stroke-width: 2.13; stroke: #FFFFFF; stroke-linecap: butt; stroke-linejoin: miter; fill: #00BF7D;"/>
<rect x="380.43" y="175.51" width="11.20" height="11.20" style="stroke-width: 2.13; stroke: #FFFFFF; stroke-linecap: butt; stroke-linejoin: miter; fill: #00BF7D;"/>
<rect x="257.27" y="175.51" width="11.20" height="11.20" style="stroke-width: 2.13; stroke: #FFFFFF; stroke-linecap: butt; stroke-linejoin: miter; fill: #F8766D;"/>
<rect x="190.09" y="175.51" width="11.20" height="11.20" style="stroke-width: 2.13; stroke: #FFFFFF; stroke-linecap: butt; stroke-linejoin: miter; fill: #F8766D;"/>
<rect x="414.02" y="175.51" width="11.20" height="11.20" style="stroke-width: 2.13; stroke: #FFFFFF; stroke-linecap: butt; stroke-linejoin: miter; fill: #00B0F6;"/>
<rect x="313.25" y="153.12" width="11.20" height="11.20" style="stroke-width: 2.13; stroke: #FFFFFF; stroke-linecap: butt; stroke-linejoin: miter; fill: #00BF7D;"/>
<rect x="234.87" y="153.12" width="11.20" height="11.20" style="stroke-width: 2.13; stroke: #FFFFFF; stroke-linecap: butt; stroke-linejoin: miter; fill: #F8766D;"/>
<rect x="268.46" y="153.12" width="11.20" height="11.20" style="stroke-width: 2.13; stroke: #FFFFFF; stroke-linecap: butt; stroke-linejoin: miter; fill: #F8766D;"/>
<rect x="212.48" y="153.12" width="11.20" height="11.20" style="stroke-width: 2.13; stroke: #FFFFFF; stroke-linecap: butt; stroke-linejoin: miter; fill: #F8766D;"/>
<rect x="346.84" y="141.93" width="11.20" height="11.20" style="stroke-width: 2.13; stroke: #FFFFFF; stroke-linecap: butt; stroke-linejoin: miter; fill: #00BF7D;"/>
<rect x="167.69" y="130.73" width="11.20" height="11.20" style="stroke-width: 2.13; stroke: #FFFFFF; stroke-linecap: butt; stroke-linejoin: miter; fill: #F8766D;"/>
<rect x="324.45" y="130.73" width="11.20" height="11.20" style="stroke-width: 2.13; stroke: #FFFFFF; stroke-linecap: butt; stroke-linejoin: miter; fill: #00BF7D;"/>
<rect x="335.65" y="119.53" width="11.20" height="11.20" style="stroke-width: 2.13; stroke: #FFFFFF; stroke-linecap: butt; stroke-linejoin: miter; fill: #00BF7D;"/>
<rect x="178.89" y="119.53" width="11.20" height="11.20" style="stroke-width: 2.13; stroke: #FFFFFF; stroke-linecap: butt; stroke-linejoin: miter; fill: #F8766D;"/>
<rect x="178.89" y="108.34" width="11.20" height="11.20" style="stroke-width: 2.13; stroke: #FFFFFF; stroke-linecap: butt; stroke-linejoin: miter; fill: #F8766D;"/>
<rect x="335.65" y="108.34" width="11.20" height="11.20" style="stroke-width: 2.13; stroke: #FFFFFF; stroke-linecap: butt; stroke-linejoin: miter; fill: #00BF7D;"/>
<rect x="178.89" y="97.14" width="11.20" height="11.20" style="stroke-width: 2.13; stroke: #FFFFFF; stroke-linecap: butt; stroke-linejoin: miter; fill: #F8766D;"/>
<rect x="335.65" y="97.14" width="11.20" height="11.20" style="stroke-width: 2.13; stroke: #FFFFFF; stroke-linecap: butt; stroke-linejoin: miter; fill: #00BF7D;"/>
<rect x="402.83" y="85.94" width="11.20" height="11.20" style="stroke-width: 2.13; stroke: #FFFFFF; stroke-linecap: butt; stroke-linejoin: miter; fill: #00B0F6;"/>
<rect x="380.43" y="85.94" width="11.20" height="11.20" style="stroke-width: 2.13; stroke: #FFFFFF; stroke-linecap: butt; stroke-linejoin: miter; fill: #00BF7D;"/>
<rect x="391.63" y="74.75" width="11.20" height="11.20" style="stroke-width: 2.13; stroke: #FFFFFF; stroke-linecap: butt; stroke-linejoin: miter; fill: #00B0F6;"/>
<rect x="391.63" y="63.55" width="11.20" height="11.20" style="stroke-width: 2.13; stroke: #FFFFFF; stroke-linecap: butt; stroke-linejoin: miter; fill: #00B0F6;"/>
<rect x="145.30" y="63.55" width="11.20" height="11.20" style="stroke-width: 2.13; stroke: #FFFFFF; stroke-linecap: butt; stroke-linejoin: miter; fill: #F8766D;"/>
<rect x="391.63" y="52.36" width="11.20" height="11.20" style="stroke-width: 2.13; stroke: #FFFFFF; stroke-linecap: butt; stroke-linejoin: miter; fill: #00B0F6;"/>
<rect x="145.30" y="52.36" width="11.20" height="11.20" style="stroke-width: 2.13; stroke: #FFFFFF; stroke-linecap: butt; stroke-linejoin: miter; fill: #F8766D;"/>
<rect x="391.63" y="41.16" width="11.20" height="11.20" style="stroke-width: 2.13; stroke: #FFFFFF; stroke-linecap: butt; stroke-linejoin: miter; fill: #00B0F6;"/>
<rect x="391.63" y="29.96" width="11.20" height="11.20" style="stroke-width: 2.13; stroke: #FFFFFF; stroke-linecap: butt; stroke-linejoin: miter; fill: #00B0F6;"/>
</g>
<g clip-path="url(#cpMC4wMHw0ODAuMDB8MC4wMHwzMzYuMDA=)">
</g>
<defs>
  <clipPath id="cpOC4yMnwxMjMuNDJ8NS40OHwyMy4yNQ==">
    <rect x="8.22" y="5.48" width="115.21" height="17.77"/>
  </clipPath>
</defs>
<g clip-path="url(#cpOC4yMnwxMjMuNDJ8NS40OHwyMy4yNQ==)">
<rect x="8.22" y="5.48" width="115.21" height="17.77" style="stroke-width: 1.07; stroke: #333333; fill: #D9D9D9;"/>
<text x="65.82" y="17.57" text-anchor="middle" style="font-size: 8.80px;fill: #1A1A1A; font-family: &quot;DejaVu Sans&quot;;" textLength="18.32px" lengthAdjust="spacingAndGlyphs">Tree</text>
</g>
<g clip-path="url(#cpMC4wMHw0ODAuMDB8MC4wMHwzMzYuMDA=)">
</g>
<defs>
  <clipPath id="cpMTI4LjkwfDQ3NC41Mnw1LjQ4fDIzLjI1">
    <rect x="128.90" y="5.48" width="345.62" height="17.77"/>
  </clipPath>
</defs>
<g clip-path="url(#cpMTI4LjkwfDQ3NC41Mnw1LjQ4fDIzLjI1)">
<rect x="128.90" y="5.48" width="345.62" height="17.77" style="stroke-width: 1.07; stroke: #333333; fill: #D9D9D9;"/>
<text x="301.71" y="17.57" text-anchor="middle" style="font-size: 8.80px;fill: #1A1A1A; font-family: &quot;DejaVu Sans&quot;;" textLength="136.11px" lengthAdjust="spacingAndGlyphs">Lanthipeptide BiG-SCAPE GCFs</text>
</g>
<g clip-path="url(#cpMC4wMHw0ODAuMDB8MC4wMHwzMzYuMDA=)">
</g>
<text x="145.3" y="330" font-size="7.5" font-family="Verdana" font-weight="normal" letter-spacing="0" text-anchor="start" fill="black" transform=" rotate(45.000000 145.300000 330.000000)">GCF_104</text><text x="156.5" y="330" font-size="7.5" font-family="Verdana" font-weight="normal" letter-spacing="0" text-anchor="start" fill="black" transform=" rotate(45.000000 156.500000 330.000000)">GCF_160</text><text x="167.69" y="330" font-size="7.5" font-family="Verdana" font-weight="normal" letter-spacing="0" text-anchor="start" fill="black" transform=" rotate(45.000000 167.690000 330.000000)">GCF_188 (Spinosyn)</text><text x="178.89" y="330" font-size="7.5" font-family="Verdana" font-weight="normal" letter-spacing="0" text-anchor="start" fill="black" transform=" rotate(45.000000 178.890000 330.000000)">GCF_70</text><text x="190.09" y="330" font-size="7.5" font-family="Verdana" font-weight="normal" letter-spacing="0" text-anchor="start" fill="black" transform=" rotate(45.000000 190.090000 330.000000)">GCF_198</text><text x="201.28" y="330" font-size="7.5" font-family="Verdana" font-weight="normal" letter-spacing="0" text-anchor="start" fill="black" transform=" rotate(45.000000 201.280000 330.000000)">GCF_200</text><text x="212.48" y="330" font-size="7.5" font-family="Verdana" font-weight="normal" letter-spacing="0" text-anchor="start" fill="black" transform=" rotate(45.000000 212.480000 330.000000)">GCF_202</text><text x="223.68" y="330" font-size="7.5" font-family="Verdana" font-weight="normal" letter-spacing="0" text-anchor="start" fill="black" transform=" rotate(45.000000 223.680000 330.000000)">GCF_206</text><text x="234.87" y="330" font-size="7.5" font-family="Verdana" font-weight="normal" letter-spacing="0" text-anchor="start" fill="black" transform=" rotate(45.000000 234.870000 330.000000)">GCF_215</text><text x="246.07" y="330" font-size="7.5" font-family="Verdana" font-weight="normal" letter-spacing="0" text-anchor="start" fill="black" transform=" rotate(45.000000 246.070000 330.000000)">GCF_217 (Planosporicin)</text><text x="257.27" y="330" font-size="7.5" font-family="Verdana" font-weight="normal" letter-spacing="0" text-anchor="start" fill="black" transform=" rotate(45.000000 257.270000 330.000000)">GCF_222</text><text x="268.46" y="330" font-size="7.5" font-family="Verdana" font-weight="normal" letter-spacing="0" text-anchor="start" fill="black" transform=" rotate(45.000000 268.460000 330.000000)">GCF_227</text><text x="279.66" y="330" font-size="7.5" font-family="Verdana" font-weight="normal" letter-spacing="0" text-anchor="start" fill="black" transform=" rotate(45.000000 279.660000 330.000000)">GCF_71 (Kyamicin)</text><text x="290.86" y="330" font-size="7.5" font-family="Verdana" font-weight="normal" letter-spacing="0" text-anchor="start" fill="black" transform=" rotate(45.000000 290.860000 330.000000)">GCF_204</text><text x="302.06" y="330" font-size="7.5" font-family="Verdana" font-weight="normal" letter-spacing="0" text-anchor="start" fill="black" transform=" rotate(45.000000 302.060000 330.000000)">GCF_49</text><text x="313.25" y="330" font-size="7.5" font-family="Verdana" font-weight="bold" letter-spacing="0" text-anchor="start" fill="black" transform=" rotate(45.000000 313.250000 330.000000)">GCF_156 (Erythreapeptin)</text><text x="324.45" y="330" font-size="7.5" font-family="Verdana" font-weight="bold" letter-spacing="0" text-anchor="start" fill="black" transform=" rotate(45.000000 324.450000 330.000000)">GCF_183 (Erythreapeptin)</text><text x="335.65" y="330" font-size="7.5" font-family="Verdana" font-weight="bold" letter-spacing="0" text-anchor="start" fill="black" transform=" rotate(45.000000 335.650000 330.000000)">GCF_75 (Erythreapeptin)</text><text x="346.84" y="330" font-size="7.5" font-family="Verdana" font-weight="bold" letter-spacing="0" text-anchor="start" fill="black" transform=" rotate(45.000000 346.840000 330.000000)">GCF_208 (Erythreapeptin)</text><text x="358.04" y="330" font-size="7.5" font-family="Verdana" font-weight="bold" letter-spacing="0" text-anchor="start" fill="black" transform=" rotate(45.000000 358.040000 330.000000)">GCF_22 (Erythreapeptin)</text><text x="369.24" y="330" font-size="7.5" font-family="Verdana" font-weight="bold" letter-spacing="0" text-anchor="start" fill="black" transform=" rotate(45.000000 369.240000 330.000000)">GCF_47 (Erythreapeptin|Anantin)</text><text x="380.43" y="330" font-size="7.5" font-family="Verdana" font-weight="normal" letter-spacing="0" text-anchor="start" fill="black" transform=" rotate(45.000000 380.430000 330.000000)">GCF_81</text><text x="391.63" y="330" font-size="7.5" font-family="Verdana" font-weight="normal" letter-spacing="0" text-anchor="start" fill="black" transform=" rotate(45.000000 391.630000 330.000000)">GCF_18</text><text x="402.83" y="330" font-size="7.5" font-family="Verdana" font-weight="normal" letter-spacing="0" text-anchor="start" fill="black" transform=" rotate(45.000000 402.830000 330.000000)">GCF_201</text><text x="414.02" y="330" font-size="7.5" font-family="Verdana" font-weight="normal" letter-spacing="0" text-anchor="start" fill="black" transform=" rotate(45.000000 414.020000 330.000000)">GCF_205 (Venezuelin)</text><text x="425.22" y="330" font-size="7.5" font-family="Verdana" font-weight="normal" letter-spacing="0" text-anchor="start" fill="black" transform=" rotate(45.000000 425.220000 330.000000)">GCF_21</text><text x="436.42" y="330" font-size="7.5" font-family="Verdana" font-weight="normal" letter-spacing="0" text-anchor="start" fill="black" transform=" rotate(45.000000 436.420000 330.000000)">GCF_23</text><text x="447.61" y="330" font-size="7.5" font-family="Verdana" font-weight="normal" letter-spacing="0" text-anchor="start" fill="black" transform=" rotate(45.000000 447.610000 330.000000)">GCF_219</text></g>
    </g>
  </g>
</svg>
